<svg width="512" height="330" viewBox="0 0 512 330" fill="none" xmlns="http://www.w3.org/2000/svg">
<path d="M0.21875 205.96L115.419 -12.44H187.419L69.3388 205.96H0.21875ZM0.21875 244.36V205.96L24.2188 187.24H266.139V244.36H0.21875ZM159.579 325V109.96H223.899V325H159.579ZM437.266 329.8C410.706 329.8 386.706 322.6 365.266 308.2C343.826 293.8 326.706 273.48 313.906 247.24C301.426 221 295.186 190.44 295.186 155.56C295.186 120.68 301.426 90.28 313.906 64.36C326.386 38.44 343.186 18.28 364.306 3.87999C385.746 -10.52 409.586 -17.72 435.826 -17.72C462.706 -17.72 486.706 -10.52 507.826 3.87999C529.266 18.28 546.226 38.6 558.706 64.84C571.186 90.76 577.426 121.32 577.426 156.52C577.426 191.4 571.186 221.96 558.706 248.2C546.226 274.12 529.426 294.28 508.306 308.68C487.186 322.76 463.506 329.8 437.266 329.8ZM436.306 270.76C451.666 270.76 464.946 266.44 476.146 257.8C487.346 249.16 495.986 236.36 502.066 219.4C508.466 202.44 511.666 181.32 511.666 156.04C511.666 130.76 508.466 109.64 502.066 92.68C495.986 75.72 487.186 63.08 475.666 54.76C464.466 46.12 451.186 41.8 435.826 41.8C420.786 41.8 407.666 46.12 396.466 54.76C385.266 63.08 376.466 75.72 370.066 92.68C363.986 109.32 360.946 130.28 360.946 155.56C360.946 181.16 363.986 202.44 370.066 219.4C376.466 236.36 385.266 249.16 396.466 257.8C407.666 266.44 420.946 270.76 436.306 270.76Z" fill="#00BD4C"/>
</svg>
