<svg width="252" height="252" viewBox="0 0 252 252" fill="none" xmlns="http://www.w3.org/2000/svg">
<g opacity="0.66">
<circle cx="2" cy="2" r="2" fill="#FFCB0A"/>
<circle cx="2" cy="18" r="2" fill="#FFCB0A"/>
<circle cx="18" cy="2" r="2" fill="#FFCB0A"/>
<circle cx="18" cy="18" r="2" fill="#FFCB0A"/>
<circle cx="10" cy="2" r="2" fill="#FFCB0A"/>
<circle cx="10" cy="18" r="2" fill="#FFCB0A"/>
<circle cx="26" cy="2" r="2" fill="#FFCB0A"/>
<circle cx="26" cy="18" r="2" fill="#FFCB0A"/>
<circle cx="2" cy="10" r="2" fill="#FFCB0A"/>
<circle cx="2" cy="26" r="2" fill="#FFCB0A"/>
<circle cx="18" cy="10" r="2" fill="#FFCB0A"/>
<circle cx="18" cy="26" r="2" fill="#FFCB0A"/>
<circle cx="10" cy="10" r="2" fill="#FFCB0A"/>
<circle cx="10" cy="26" r="2" fill="#FFCB0A"/>
<circle cx="26" cy="10" r="2" fill="#FFCB0A"/>
<circle cx="26" cy="26" r="2" fill="#FFCB0A"/>
<circle cx="2" cy="34" r="2" fill="#FFCB0A"/>
<circle cx="2" cy="50" r="2" fill="#FFCB0A"/>
<circle cx="18" cy="34" r="2" fill="#FFCB0A"/>
<circle cx="18" cy="50" r="2" fill="#FFCB0A"/>
<circle cx="10" cy="34" r="2" fill="#FFCB0A"/>
<circle cx="10" cy="50" r="2" fill="#FFCB0A"/>
<circle cx="26" cy="34" r="2" fill="#FFCB0A"/>
<circle cx="26" cy="50" r="2" fill="#FFCB0A"/>
<circle cx="2" cy="42" r="2" fill="#FFCB0A"/>
<circle cx="2" cy="58" r="2" fill="#FFCB0A"/>
<circle cx="18" cy="42" r="2" fill="#FFCB0A"/>
<circle cx="18" cy="58" r="2" fill="#FFCB0A"/>
<circle cx="10" cy="42" r="2" fill="#FFCB0A"/>
<circle cx="10" cy="58" r="2" fill="#FFCB0A"/>
<circle cx="26" cy="42" r="2" fill="#FFCB0A"/>
<circle cx="26" cy="58" r="2" fill="#FFCB0A"/>
<circle cx="2" cy="66" r="2" fill="#FFCB0A"/>
<circle cx="2" cy="82" r="2" fill="#FFCB0A"/>
<circle cx="18" cy="66" r="2" fill="#FFCB0A"/>
<circle cx="18" cy="82" r="2" fill="#FFCB0A"/>
<circle cx="10" cy="66" r="2" fill="#FFCB0A"/>
<circle cx="10" cy="82" r="2" fill="#FFCB0A"/>
<circle cx="26" cy="66" r="2" fill="#FFCB0A"/>
<circle cx="26" cy="82" r="2" fill="#FFCB0A"/>
<circle cx="2" cy="74" r="2" fill="#FFCB0A"/>
<circle cx="2" cy="90" r="2" fill="#FFCB0A"/>
<circle cx="18" cy="74" r="2" fill="#FFCB0A"/>
<circle cx="18" cy="90" r="2" fill="#FFCB0A"/>
<circle cx="10" cy="74" r="2" fill="#FFCB0A"/>
<circle cx="10" cy="90" r="2" fill="#FFCB0A"/>
<circle cx="26" cy="74" r="2" fill="#FFCB0A"/>
<circle cx="26" cy="90" r="2" fill="#FFCB0A"/>
<circle cx="2" cy="98" r="2" fill="#FFCB0A"/>
<circle cx="2" cy="114" r="2" fill="#FFCB0A"/>
<circle cx="18" cy="98" r="2" fill="#FFCB0A"/>
<circle cx="18" cy="114" r="2" fill="#FFCB0A"/>
<circle cx="10" cy="98" r="2" fill="#FFCB0A"/>
<circle cx="10" cy="114" r="2" fill="#FFCB0A"/>
<circle cx="26" cy="98" r="2" fill="#FFCB0A"/>
<circle cx="26" cy="114" r="2" fill="#FFCB0A"/>
<circle cx="2" cy="106" r="2" fill="#FFCB0A"/>
<circle cx="2" cy="122" r="2" fill="#FFCB0A"/>
<circle cx="18" cy="106" r="2" fill="#FFCB0A"/>
<circle cx="18" cy="122" r="2" fill="#FFCB0A"/>
<circle cx="10" cy="106" r="2" fill="#FFCB0A"/>
<circle cx="10" cy="122" r="2" fill="#FFCB0A"/>
<circle cx="26" cy="106" r="2" fill="#FFCB0A"/>
<circle cx="26" cy="122" r="2" fill="#FFCB0A"/>
<circle cx="34" cy="2" r="2" fill="#FFCB0A"/>
<circle cx="34" cy="18" r="2" fill="#FFCB0A"/>
<circle cx="50" cy="2" r="2" fill="#FFCB0A"/>
<circle cx="50" cy="18" r="2" fill="#FFCB0A"/>
<circle cx="42" cy="2" r="2" fill="#FFCB0A"/>
<circle cx="42" cy="18" r="2" fill="#FFCB0A"/>
<circle cx="58" cy="2" r="2" fill="#FFCB0A"/>
<circle cx="58" cy="18" r="2" fill="#FFCB0A"/>
<circle cx="34" cy="10" r="2" fill="#FFCB0A"/>
<circle cx="34" cy="26" r="2" fill="#FFCB0A"/>
<circle cx="50" cy="10" r="2" fill="#FFCB0A"/>
<circle cx="50" cy="26" r="2" fill="#FFCB0A"/>
<circle cx="42" cy="10" r="2" fill="#FFCB0A"/>
<circle cx="42" cy="26" r="2" fill="#FFCB0A"/>
<circle cx="58" cy="10" r="2" fill="#FFCB0A"/>
<circle cx="58" cy="26" r="2" fill="#FFCB0A"/>
<circle cx="34" cy="34" r="2" fill="#FFCB0A"/>
<circle cx="34" cy="50" r="2" fill="#FFCB0A"/>
<circle cx="50" cy="34" r="2" fill="#FFCB0A"/>
<circle cx="50" cy="50" r="2" fill="#FFCB0A"/>
<circle cx="42" cy="34" r="2" fill="#FFCB0A"/>
<circle cx="42" cy="50" r="2" fill="#FFCB0A"/>
<circle cx="58" cy="34" r="2" fill="#FFCB0A"/>
<circle cx="58" cy="50" r="2" fill="#FFCB0A"/>
<circle cx="34" cy="42" r="2" fill="#FFCB0A"/>
<circle cx="34" cy="58" r="2" fill="#FFCB0A"/>
<circle cx="50" cy="42" r="2" fill="#FFCB0A"/>
<circle cx="50" cy="58" r="2" fill="#FFCB0A"/>
<circle cx="42" cy="42" r="2" fill="#FFCB0A"/>
<circle cx="42" cy="58" r="2" fill="#FFCB0A"/>
<circle cx="58" cy="42" r="2" fill="#FFCB0A"/>
<circle cx="58" cy="58" r="2" fill="#FFCB0A"/>
<circle cx="34" cy="66" r="2" fill="#FFCB0A"/>
<circle cx="34" cy="82" r="2" fill="#FFCB0A"/>
<circle cx="50" cy="66" r="2" fill="#FFCB0A"/>
<circle cx="50" cy="82" r="2" fill="#FFCB0A"/>
<circle cx="42" cy="66" r="2" fill="#FFCB0A"/>
<circle cx="42" cy="82" r="2" fill="#FFCB0A"/>
<circle cx="58" cy="66" r="2" fill="#FFCB0A"/>
<circle cx="58" cy="82" r="2" fill="#FFCB0A"/>
<circle cx="34" cy="74" r="2" fill="#FFCB0A"/>
<circle cx="34" cy="90" r="2" fill="#FFCB0A"/>
<circle cx="50" cy="74" r="2" fill="#FFCB0A"/>
<circle cx="50" cy="90" r="2" fill="#FFCB0A"/>
<circle cx="42" cy="74" r="2" fill="#FFCB0A"/>
<circle cx="42" cy="90" r="2" fill="#FFCB0A"/>
<circle cx="58" cy="74" r="2" fill="#FFCB0A"/>
<circle cx="58" cy="90" r="2" fill="#FFCB0A"/>
<circle cx="34" cy="98" r="2" fill="#FFCB0A"/>
<circle cx="34" cy="114" r="2" fill="#FFCB0A"/>
<circle cx="50" cy="98" r="2" fill="#FFCB0A"/>
<circle cx="50" cy="114" r="2" fill="#FFCB0A"/>
<circle cx="42" cy="98" r="2" fill="#FFCB0A"/>
<circle cx="42" cy="114" r="2" fill="#FFCB0A"/>
<circle cx="58" cy="98" r="2" fill="#FFCB0A"/>
<circle cx="58" cy="114" r="2" fill="#FFCB0A"/>
<circle cx="34" cy="106" r="2" fill="#FFCB0A"/>
<circle cx="34" cy="122" r="2" fill="#FFCB0A"/>
<circle cx="50" cy="106" r="2" fill="#FFCB0A"/>
<circle cx="50" cy="122" r="2" fill="#FFCB0A"/>
<circle cx="42" cy="106" r="2" fill="#FFCB0A"/>
<circle cx="42" cy="122" r="2" fill="#FFCB0A"/>
<circle cx="58" cy="106" r="2" fill="#FFCB0A"/>
<circle cx="58" cy="122" r="2" fill="#FFCB0A"/>
<circle cx="66" cy="2" r="2" fill="#FFCB0A"/>
<circle cx="66" cy="18" r="2" fill="#FFCB0A"/>
<circle cx="82" cy="2" r="2" fill="#FFCB0A"/>
<circle cx="82" cy="18" r="2" fill="#FFCB0A"/>
<circle cx="74" cy="2" r="2" fill="#FFCB0A"/>
<circle cx="74" cy="18" r="2" fill="#FFCB0A"/>
<circle cx="90" cy="2" r="2" fill="#FFCB0A"/>
<circle cx="90" cy="18" r="2" fill="#FFCB0A"/>
<circle cx="66" cy="10" r="2" fill="#FFCB0A"/>
<circle cx="66" cy="26" r="2" fill="#FFCB0A"/>
<circle cx="82" cy="10" r="2" fill="#FFCB0A"/>
<circle cx="82" cy="26" r="2" fill="#FFCB0A"/>
<circle cx="74" cy="10" r="2" fill="#FFCB0A"/>
<circle cx="74" cy="26" r="2" fill="#FFCB0A"/>
<circle cx="90" cy="10" r="2" fill="#FFCB0A"/>
<circle cx="90" cy="26" r="2" fill="#FFCB0A"/>
<circle cx="66" cy="34" r="2" fill="#FFCB0A"/>
<circle cx="66" cy="50" r="2" fill="#FFCB0A"/>
<circle cx="82" cy="34" r="2" fill="#FFCB0A"/>
<circle cx="82" cy="50" r="2" fill="#FFCB0A"/>
<circle cx="74" cy="34" r="2" fill="#FFCB0A"/>
<circle cx="74" cy="50" r="2" fill="#FFCB0A"/>
<circle cx="90" cy="34" r="2" fill="#FFCB0A"/>
<circle cx="90" cy="50" r="2" fill="#FFCB0A"/>
<circle cx="66" cy="42" r="2" fill="#FFCB0A"/>
<circle cx="66" cy="58" r="2" fill="#FFCB0A"/>
<circle cx="82" cy="42" r="2" fill="#FFCB0A"/>
<circle cx="82" cy="58" r="2" fill="#FFCB0A"/>
<circle cx="74" cy="42" r="2" fill="#FFCB0A"/>
<circle cx="74" cy="58" r="2" fill="#FFCB0A"/>
<circle cx="90" cy="42" r="2" fill="#FFCB0A"/>
<circle cx="90" cy="58" r="2" fill="#FFCB0A"/>
<circle cx="66" cy="66" r="2" fill="#FFCB0A"/>
<circle cx="66" cy="82" r="2" fill="#FFCB0A"/>
<circle cx="82" cy="66" r="2" fill="#FFCB0A"/>
<circle cx="82" cy="82" r="2" fill="#FFCB0A"/>
<circle cx="74" cy="66" r="2" fill="#FFCB0A"/>
<circle cx="74" cy="82" r="2" fill="#FFCB0A"/>
<circle cx="90" cy="66" r="2" fill="#FFCB0A"/>
<circle cx="90" cy="82" r="2" fill="#FFCB0A"/>
<circle cx="66" cy="74" r="2" fill="#FFCB0A"/>
<circle cx="66" cy="90" r="2" fill="#FFCB0A"/>
<circle cx="82" cy="74" r="2" fill="#FFCB0A"/>
<circle cx="82" cy="90" r="2" fill="#FFCB0A"/>
<circle cx="74" cy="74" r="2" fill="#FFCB0A"/>
<circle cx="74" cy="90" r="2" fill="#FFCB0A"/>
<circle cx="90" cy="74" r="2" fill="#FFCB0A"/>
<circle cx="90" cy="90" r="2" fill="#FFCB0A"/>
<circle cx="66" cy="98" r="2" fill="#FFCB0A"/>
<circle cx="66" cy="114" r="2" fill="#FFCB0A"/>
<circle cx="82" cy="98" r="2" fill="#FFCB0A"/>
<circle cx="82" cy="114" r="2" fill="#FFCB0A"/>
<circle cx="74" cy="98" r="2" fill="#FFCB0A"/>
<circle cx="74" cy="114" r="2" fill="#FFCB0A"/>
<circle cx="90" cy="98" r="2" fill="#FFCB0A"/>
<circle cx="90" cy="114" r="2" fill="#FFCB0A"/>
<circle cx="66" cy="106" r="2" fill="#FFCB0A"/>
<circle cx="66" cy="122" r="2" fill="#FFCB0A"/>
<circle cx="82" cy="106" r="2" fill="#FFCB0A"/>
<circle cx="82" cy="122" r="2" fill="#FFCB0A"/>
<circle cx="74" cy="106" r="2" fill="#FFCB0A"/>
<circle cx="74" cy="122" r="2" fill="#FFCB0A"/>
<circle cx="90" cy="106" r="2" fill="#FFCB0A"/>
<circle cx="90" cy="122" r="2" fill="#FFCB0A"/>
<circle cx="98" cy="2" r="2" fill="#FFCB0A"/>
<circle cx="98" cy="18" r="2" fill="#FFCB0A"/>
<circle cx="114" cy="2" r="2" fill="#FFCB0A"/>
<circle cx="114" cy="18" r="2" fill="#FFCB0A"/>
<circle cx="106" cy="2" r="2" fill="#FFCB0A"/>
<circle cx="106" cy="18" r="2" fill="#FFCB0A"/>
<circle cx="122" cy="2" r="2" fill="#FFCB0A"/>
<circle cx="122" cy="18" r="2" fill="#FFCB0A"/>
<circle cx="98" cy="10" r="2" fill="#FFCB0A"/>
<circle cx="98" cy="26" r="2" fill="#FFCB0A"/>
<circle cx="114" cy="10" r="2" fill="#FFCB0A"/>
<circle cx="114" cy="26" r="2" fill="#FFCB0A"/>
<circle cx="106" cy="10" r="2" fill="#FFCB0A"/>
<circle cx="106" cy="26" r="2" fill="#FFCB0A"/>
<circle cx="122" cy="10" r="2" fill="#FFCB0A"/>
<circle cx="122" cy="26" r="2" fill="#FFCB0A"/>
<circle cx="98" cy="34" r="2" fill="#FFCB0A"/>
<circle cx="98" cy="50" r="2" fill="#FFCB0A"/>
<circle cx="114" cy="34" r="2" fill="#FFCB0A"/>
<circle cx="114" cy="50" r="2" fill="#FFCB0A"/>
<circle cx="106" cy="34" r="2" fill="#FFCB0A"/>
<circle cx="106" cy="50" r="2" fill="#FFCB0A"/>
<circle cx="122" cy="34" r="2" fill="#FFCB0A"/>
<circle cx="122" cy="50" r="2" fill="#FFCB0A"/>
<circle cx="98" cy="42" r="2" fill="#FFCB0A"/>
<circle cx="98" cy="58" r="2" fill="#FFCB0A"/>
<circle cx="114" cy="42" r="2" fill="#FFCB0A"/>
<circle cx="114" cy="58" r="2" fill="#FFCB0A"/>
<circle cx="106" cy="42" r="2" fill="#FFCB0A"/>
<circle cx="106" cy="58" r="2" fill="#FFCB0A"/>
<circle cx="122" cy="42" r="2" fill="#FFCB0A"/>
<circle cx="122" cy="58" r="2" fill="#FFCB0A"/>
<circle cx="98" cy="66" r="2" fill="#FFCB0A"/>
<circle cx="98" cy="82" r="2" fill="#FFCB0A"/>
<circle cx="114" cy="66" r="2" fill="#FFCB0A"/>
<circle cx="114" cy="82" r="2" fill="#FFCB0A"/>
<circle cx="106" cy="66" r="2" fill="#FFCB0A"/>
<circle cx="106" cy="82" r="2" fill="#FFCB0A"/>
<circle cx="122" cy="66" r="2" fill="#FFCB0A"/>
<circle cx="122" cy="82" r="2" fill="#FFCB0A"/>
<circle cx="98" cy="74" r="2" fill="#FFCB0A"/>
<circle cx="98" cy="90" r="2" fill="#FFCB0A"/>
<circle cx="114" cy="74" r="2" fill="#FFCB0A"/>
<circle cx="114" cy="90" r="2" fill="#FFCB0A"/>
<circle cx="106" cy="74" r="2" fill="#FFCB0A"/>
<circle cx="106" cy="90" r="2" fill="#FFCB0A"/>
<circle cx="122" cy="74" r="2" fill="#FFCB0A"/>
<circle cx="122" cy="90" r="2" fill="#FFCB0A"/>
<circle cx="98" cy="98" r="2" fill="#FFCB0A"/>
<circle cx="98" cy="114" r="2" fill="#FFCB0A"/>
<circle cx="114" cy="98" r="2" fill="#FFCB0A"/>
<circle cx="114" cy="114" r="2" fill="#FFCB0A"/>
<circle cx="106" cy="98" r="2" fill="#FFCB0A"/>
<circle cx="106" cy="114" r="2" fill="#FFCB0A"/>
<circle cx="122" cy="98" r="2" fill="#FFCB0A"/>
<circle cx="122" cy="114" r="2" fill="#FFCB0A"/>
<circle cx="98" cy="106" r="2" fill="#FFCB0A"/>
<circle cx="98" cy="122" r="2" fill="#FFCB0A"/>
<circle cx="114" cy="106" r="2" fill="#FFCB0A"/>
<circle cx="114" cy="122" r="2" fill="#FFCB0A"/>
<circle cx="106" cy="106" r="2" fill="#FFCB0A"/>
<circle cx="106" cy="122" r="2" fill="#FFCB0A"/>
<circle cx="122" cy="106" r="2" fill="#FFCB0A"/>
<circle cx="122" cy="122" r="2" fill="#FFCB0A"/>
<circle cx="130" cy="2" r="2" fill="#FFCB0A"/>
<circle cx="130" cy="18" r="2" fill="#FFCB0A"/>
<circle cx="146" cy="2" r="2" fill="#FFCB0A"/>
<circle cx="146" cy="18" r="2" fill="#FFCB0A"/>
<circle cx="138" cy="2" r="2" fill="#FFCB0A"/>
<circle cx="138" cy="18" r="2" fill="#FFCB0A"/>
<circle cx="154" cy="2" r="2" fill="#FFCB0A"/>
<circle cx="154" cy="18" r="2" fill="#FFCB0A"/>
<circle cx="130" cy="10" r="2" fill="#FFCB0A"/>
<circle cx="130" cy="26" r="2" fill="#FFCB0A"/>
<circle cx="146" cy="10" r="2" fill="#FFCB0A"/>
<circle cx="146" cy="26" r="2" fill="#FFCB0A"/>
<circle cx="138" cy="10" r="2" fill="#FFCB0A"/>
<circle cx="138" cy="26" r="2" fill="#FFCB0A"/>
<circle cx="154" cy="10" r="2" fill="#FFCB0A"/>
<circle cx="154" cy="26" r="2" fill="#FFCB0A"/>
<circle cx="130" cy="34" r="2" fill="#FFCB0A"/>
<circle cx="130" cy="50" r="2" fill="#FFCB0A"/>
<circle cx="146" cy="34" r="2" fill="#FFCB0A"/>
<circle cx="146" cy="50" r="2" fill="#FFCB0A"/>
<circle cx="138" cy="34" r="2" fill="#FFCB0A"/>
<circle cx="138" cy="50" r="2" fill="#FFCB0A"/>
<circle cx="154" cy="34" r="2" fill="#FFCB0A"/>
<circle cx="154" cy="50" r="2" fill="#FFCB0A"/>
<circle cx="130" cy="42" r="2" fill="#FFCB0A"/>
<circle cx="130" cy="58" r="2" fill="#FFCB0A"/>
<circle cx="146" cy="42" r="2" fill="#FFCB0A"/>
<circle cx="146" cy="58" r="2" fill="#FFCB0A"/>
<circle cx="138" cy="42" r="2" fill="#FFCB0A"/>
<circle cx="138" cy="58" r="2" fill="#FFCB0A"/>
<circle cx="154" cy="42" r="2" fill="#FFCB0A"/>
<circle cx="154" cy="58" r="2" fill="#FFCB0A"/>
<circle cx="130" cy="66" r="2" fill="#FFCB0A"/>
<circle cx="130" cy="82" r="2" fill="#FFCB0A"/>
<circle cx="146" cy="66" r="2" fill="#FFCB0A"/>
<circle cx="146" cy="82" r="2" fill="#FFCB0A"/>
<circle cx="138" cy="66" r="2" fill="#FFCB0A"/>
<circle cx="138" cy="82" r="2" fill="#FFCB0A"/>
<circle cx="154" cy="66" r="2" fill="#FFCB0A"/>
<circle cx="154" cy="82" r="2" fill="#FFCB0A"/>
<circle cx="130" cy="74" r="2" fill="#FFCB0A"/>
<circle cx="130" cy="90" r="2" fill="#FFCB0A"/>
<circle cx="146" cy="74" r="2" fill="#FFCB0A"/>
<circle cx="146" cy="90" r="2" fill="#FFCB0A"/>
<circle cx="138" cy="74" r="2" fill="#FFCB0A"/>
<circle cx="138" cy="90" r="2" fill="#FFCB0A"/>
<circle cx="154" cy="74" r="2" fill="#FFCB0A"/>
<circle cx="154" cy="90" r="2" fill="#FFCB0A"/>
<circle cx="130" cy="98" r="2" fill="#FFCB0A"/>
<circle cx="130" cy="114" r="2" fill="#FFCB0A"/>
<circle cx="146" cy="98" r="2" fill="#FFCB0A"/>
<circle cx="146" cy="114" r="2" fill="#FFCB0A"/>
<circle cx="138" cy="98" r="2" fill="#FFCB0A"/>
<circle cx="138" cy="114" r="2" fill="#FFCB0A"/>
<circle cx="154" cy="98" r="2" fill="#FFCB0A"/>
<circle cx="154" cy="114" r="2" fill="#FFCB0A"/>
<circle cx="130" cy="106" r="2" fill="#FFCB0A"/>
<circle cx="130" cy="122" r="2" fill="#FFCB0A"/>
<circle cx="146" cy="106" r="2" fill="#FFCB0A"/>
<circle cx="146" cy="122" r="2" fill="#FFCB0A"/>
<circle cx="138" cy="106" r="2" fill="#FFCB0A"/>
<circle cx="138" cy="122" r="2" fill="#FFCB0A"/>
<circle cx="154" cy="106" r="2" fill="#FFCB0A"/>
<circle cx="154" cy="122" r="2" fill="#FFCB0A"/>
<circle cx="162" cy="2" r="2" fill="#FFCB0A"/>
<circle cx="162" cy="18" r="2" fill="#FFCB0A"/>
<circle cx="178" cy="2" r="2" fill="#FFCB0A"/>
<circle cx="178" cy="18" r="2" fill="#FFCB0A"/>
<circle cx="170" cy="2" r="2" fill="#FFCB0A"/>
<circle cx="170" cy="18" r="2" fill="#FFCB0A"/>
<circle cx="186" cy="2" r="2" fill="#FFCB0A"/>
<circle cx="186" cy="18" r="2" fill="#FFCB0A"/>
<circle cx="162" cy="10" r="2" fill="#FFCB0A"/>
<circle cx="162" cy="26" r="2" fill="#FFCB0A"/>
<circle cx="178" cy="10" r="2" fill="#FFCB0A"/>
<circle cx="178" cy="26" r="2" fill="#FFCB0A"/>
<circle cx="170" cy="10" r="2" fill="#FFCB0A"/>
<circle cx="170" cy="26" r="2" fill="#FFCB0A"/>
<circle cx="186" cy="10" r="2" fill="#FFCB0A"/>
<circle cx="186" cy="26" r="2" fill="#FFCB0A"/>
<circle cx="162" cy="34" r="2" fill="#FFCB0A"/>
<circle cx="162" cy="50" r="2" fill="#FFCB0A"/>
<circle cx="178" cy="34" r="2" fill="#FFCB0A"/>
<circle cx="178" cy="50" r="2" fill="#FFCB0A"/>
<circle cx="170" cy="34" r="2" fill="#FFCB0A"/>
<circle cx="170" cy="50" r="2" fill="#FFCB0A"/>
<circle cx="186" cy="34" r="2" fill="#FFCB0A"/>
<circle cx="186" cy="50" r="2" fill="#FFCB0A"/>
<circle cx="162" cy="42" r="2" fill="#FFCB0A"/>
<circle cx="162" cy="58" r="2" fill="#FFCB0A"/>
<circle cx="178" cy="42" r="2" fill="#FFCB0A"/>
<circle cx="178" cy="58" r="2" fill="#FFCB0A"/>
<circle cx="170" cy="42" r="2" fill="#FFCB0A"/>
<circle cx="170" cy="58" r="2" fill="#FFCB0A"/>
<circle cx="186" cy="42" r="2" fill="#FFCB0A"/>
<circle cx="186" cy="58" r="2" fill="#FFCB0A"/>
<circle cx="162" cy="66" r="2" fill="#FFCB0A"/>
<circle cx="162" cy="82" r="2" fill="#FFCB0A"/>
<circle cx="178" cy="66" r="2" fill="#FFCB0A"/>
<circle cx="178" cy="82" r="2" fill="#FFCB0A"/>
<circle cx="170" cy="66" r="2" fill="#FFCB0A"/>
<circle cx="170" cy="82" r="2" fill="#FFCB0A"/>
<circle cx="186" cy="66" r="2" fill="#FFCB0A"/>
<circle cx="186" cy="82" r="2" fill="#FFCB0A"/>
<circle cx="162" cy="74" r="2" fill="#FFCB0A"/>
<circle cx="162" cy="90" r="2" fill="#FFCB0A"/>
<circle cx="178" cy="74" r="2" fill="#FFCB0A"/>
<circle cx="178" cy="90" r="2" fill="#FFCB0A"/>
<circle cx="170" cy="74" r="2" fill="#FFCB0A"/>
<circle cx="170" cy="90" r="2" fill="#FFCB0A"/>
<circle cx="186" cy="74" r="2" fill="#FFCB0A"/>
<circle cx="186" cy="90" r="2" fill="#FFCB0A"/>
<circle cx="162" cy="98" r="2" fill="#FFCB0A"/>
<circle cx="162" cy="114" r="2" fill="#FFCB0A"/>
<circle cx="178" cy="98" r="2" fill="#FFCB0A"/>
<circle cx="178" cy="114" r="2" fill="#FFCB0A"/>
<circle cx="170" cy="98" r="2" fill="#FFCB0A"/>
<circle cx="170" cy="114" r="2" fill="#FFCB0A"/>
<circle cx="186" cy="98" r="2" fill="#FFCB0A"/>
<circle cx="186" cy="114" r="2" fill="#FFCB0A"/>
<circle cx="162" cy="106" r="2" fill="#FFCB0A"/>
<circle cx="162" cy="122" r="2" fill="#FFCB0A"/>
<circle cx="178" cy="106" r="2" fill="#FFCB0A"/>
<circle cx="178" cy="122" r="2" fill="#FFCB0A"/>
<circle cx="170" cy="106" r="2" fill="#FFCB0A"/>
<circle cx="170" cy="122" r="2" fill="#FFCB0A"/>
<circle cx="186" cy="106" r="2" fill="#FFCB0A"/>
<circle cx="186" cy="122" r="2" fill="#FFCB0A"/>
<circle cx="194" cy="2" r="2" fill="#FFCB0A"/>
<circle cx="194" cy="18" r="2" fill="#FFCB0A"/>
<circle cx="210" cy="2" r="2" fill="#FFCB0A"/>
<circle cx="210" cy="18" r="2" fill="#FFCB0A"/>
<circle cx="202" cy="2" r="2" fill="#FFCB0A"/>
<circle cx="202" cy="18" r="2" fill="#FFCB0A"/>
<circle cx="218" cy="2" r="2" fill="#FFCB0A"/>
<circle cx="218" cy="18" r="2" fill="#FFCB0A"/>
<circle cx="194" cy="10" r="2" fill="#FFCB0A"/>
<circle cx="194" cy="26" r="2" fill="#FFCB0A"/>
<circle cx="210" cy="10" r="2" fill="#FFCB0A"/>
<circle cx="210" cy="26" r="2" fill="#FFCB0A"/>
<circle cx="202" cy="10" r="2" fill="#FFCB0A"/>
<circle cx="202" cy="26" r="2" fill="#FFCB0A"/>
<circle cx="218" cy="10" r="2" fill="#FFCB0A"/>
<circle cx="218" cy="26" r="2" fill="#FFCB0A"/>
<circle cx="194" cy="34" r="2" fill="#FFCB0A"/>
<circle cx="194" cy="50" r="2" fill="#FFCB0A"/>
<circle cx="210" cy="34" r="2" fill="#FFCB0A"/>
<circle cx="210" cy="50" r="2" fill="#FFCB0A"/>
<circle cx="202" cy="34" r="2" fill="#FFCB0A"/>
<circle cx="202" cy="50" r="2" fill="#FFCB0A"/>
<circle cx="218" cy="34" r="2" fill="#FFCB0A"/>
<circle cx="218" cy="50" r="2" fill="#FFCB0A"/>
<circle cx="194" cy="42" r="2" fill="#FFCB0A"/>
<circle cx="194" cy="58" r="2" fill="#FFCB0A"/>
<circle cx="210" cy="42" r="2" fill="#FFCB0A"/>
<circle cx="210" cy="58" r="2" fill="#FFCB0A"/>
<circle cx="202" cy="42" r="2" fill="#FFCB0A"/>
<circle cx="202" cy="58" r="2" fill="#FFCB0A"/>
<circle cx="218" cy="42" r="2" fill="#FFCB0A"/>
<circle cx="218" cy="58" r="2" fill="#FFCB0A"/>
<circle cx="194" cy="66" r="2" fill="#FFCB0A"/>
<circle cx="194" cy="82" r="2" fill="#FFCB0A"/>
<circle cx="210" cy="66" r="2" fill="#FFCB0A"/>
<circle cx="210" cy="82" r="2" fill="#FFCB0A"/>
<circle cx="202" cy="66" r="2" fill="#FFCB0A"/>
<circle cx="202" cy="82" r="2" fill="#FFCB0A"/>
<circle cx="218" cy="66" r="2" fill="#FFCB0A"/>
<circle cx="218" cy="82" r="2" fill="#FFCB0A"/>
<circle cx="194" cy="74" r="2" fill="#FFCB0A"/>
<circle cx="194" cy="90" r="2" fill="#FFCB0A"/>
<circle cx="210" cy="74" r="2" fill="#FFCB0A"/>
<circle cx="210" cy="90" r="2" fill="#FFCB0A"/>
<circle cx="202" cy="74" r="2" fill="#FFCB0A"/>
<circle cx="202" cy="90" r="2" fill="#FFCB0A"/>
<circle cx="218" cy="74" r="2" fill="#FFCB0A"/>
<circle cx="218" cy="90" r="2" fill="#FFCB0A"/>
<circle cx="194" cy="98" r="2" fill="#FFCB0A"/>
<circle cx="194" cy="114" r="2" fill="#FFCB0A"/>
<circle cx="210" cy="98" r="2" fill="#FFCB0A"/>
<circle cx="210" cy="114" r="2" fill="#FFCB0A"/>
<circle cx="202" cy="98" r="2" fill="#FFCB0A"/>
<circle cx="202" cy="114" r="2" fill="#FFCB0A"/>
<circle cx="218" cy="98" r="2" fill="#FFCB0A"/>
<circle cx="218" cy="114" r="2" fill="#FFCB0A"/>
<circle cx="194" cy="106" r="2" fill="#FFCB0A"/>
<circle cx="194" cy="122" r="2" fill="#FFCB0A"/>
<circle cx="210" cy="106" r="2" fill="#FFCB0A"/>
<circle cx="210" cy="122" r="2" fill="#FFCB0A"/>
<circle cx="202" cy="106" r="2" fill="#FFCB0A"/>
<circle cx="202" cy="122" r="2" fill="#FFCB0A"/>
<circle cx="218" cy="106" r="2" fill="#FFCB0A"/>
<circle cx="218" cy="122" r="2" fill="#FFCB0A"/>
<circle cx="226" cy="2" r="2" fill="#FFCB0A"/>
<circle cx="226" cy="18" r="2" fill="#FFCB0A"/>
<circle cx="242" cy="2" r="2" fill="#FFCB0A"/>
<circle cx="242" cy="18" r="2" fill="#FFCB0A"/>
<circle cx="234" cy="2" r="2" fill="#FFCB0A"/>
<circle cx="234" cy="18" r="2" fill="#FFCB0A"/>
<circle cx="250" cy="2" r="2" fill="#FFCB0A"/>
<circle cx="250" cy="18" r="2" fill="#FFCB0A"/>
<circle cx="226" cy="10" r="2" fill="#FFCB0A"/>
<circle cx="226" cy="26" r="2" fill="#FFCB0A"/>
<circle cx="242" cy="10" r="2" fill="#FFCB0A"/>
<circle cx="242" cy="26" r="2" fill="#FFCB0A"/>
<circle cx="234" cy="10" r="2" fill="#FFCB0A"/>
<circle cx="234" cy="26" r="2" fill="#FFCB0A"/>
<circle cx="250" cy="10" r="2" fill="#FFCB0A"/>
<circle cx="250" cy="26" r="2" fill="#FFCB0A"/>
<circle cx="226" cy="34" r="2" fill="#FFCB0A"/>
<circle cx="226" cy="50" r="2" fill="#FFCB0A"/>
<circle cx="242" cy="34" r="2" fill="#FFCB0A"/>
<circle cx="242" cy="50" r="2" fill="#FFCB0A"/>
<circle cx="234" cy="34" r="2" fill="#FFCB0A"/>
<circle cx="234" cy="50" r="2" fill="#FFCB0A"/>
<circle cx="250" cy="34" r="2" fill="#FFCB0A"/>
<circle cx="250" cy="50" r="2" fill="#FFCB0A"/>
<circle cx="226" cy="42" r="2" fill="#FFCB0A"/>
<circle cx="226" cy="58" r="2" fill="#FFCB0A"/>
<circle cx="242" cy="42" r="2" fill="#FFCB0A"/>
<circle cx="242" cy="58" r="2" fill="#FFCB0A"/>
<circle cx="234" cy="42" r="2" fill="#FFCB0A"/>
<circle cx="234" cy="58" r="2" fill="#FFCB0A"/>
<circle cx="250" cy="42" r="2" fill="#FFCB0A"/>
<circle cx="250" cy="58" r="2" fill="#FFCB0A"/>
<circle cx="226" cy="66" r="2" fill="#FFCB0A"/>
<circle cx="226" cy="82" r="2" fill="#FFCB0A"/>
<circle cx="242" cy="66" r="2" fill="#FFCB0A"/>
<circle cx="242" cy="82" r="2" fill="#FFCB0A"/>
<circle cx="234" cy="66" r="2" fill="#FFCB0A"/>
<circle cx="234" cy="82" r="2" fill="#FFCB0A"/>
<circle cx="250" cy="66" r="2" fill="#FFCB0A"/>
<circle cx="250" cy="82" r="2" fill="#FFCB0A"/>
<circle cx="226" cy="74" r="2" fill="#FFCB0A"/>
<circle cx="226" cy="90" r="2" fill="#FFCB0A"/>
<circle cx="242" cy="74" r="2" fill="#FFCB0A"/>
<circle cx="242" cy="90" r="2" fill="#FFCB0A"/>
<circle cx="234" cy="74" r="2" fill="#FFCB0A"/>
<circle cx="234" cy="90" r="2" fill="#FFCB0A"/>
<circle cx="250" cy="74" r="2" fill="#FFCB0A"/>
<circle cx="250" cy="90" r="2" fill="#FFCB0A"/>
<circle cx="226" cy="98" r="2" fill="#FFCB0A"/>
<circle cx="226" cy="114" r="2" fill="#FFCB0A"/>
<circle cx="242" cy="98" r="2" fill="#FFCB0A"/>
<circle cx="242" cy="114" r="2" fill="#FFCB0A"/>
<circle cx="234" cy="98" r="2" fill="#FFCB0A"/>
<circle cx="234" cy="114" r="2" fill="#FFCB0A"/>
<circle cx="250" cy="98" r="2" fill="#FFCB0A"/>
<circle cx="250" cy="114" r="2" fill="#FFCB0A"/>
<circle cx="226" cy="106" r="2" fill="#FFCB0A"/>
<circle cx="226" cy="122" r="2" fill="#FFCB0A"/>
<circle cx="242" cy="106" r="2" fill="#FFCB0A"/>
<circle cx="242" cy="122" r="2" fill="#FFCB0A"/>
<circle cx="234" cy="106" r="2" fill="#FFCB0A"/>
<circle cx="234" cy="122" r="2" fill="#FFCB0A"/>
<circle cx="250" cy="106" r="2" fill="#FFCB0A"/>
<circle cx="250" cy="122" r="2" fill="#FFCB0A"/>
<circle cx="2" cy="130" r="2" fill="#FFCB0A"/>
<circle cx="2" cy="146" r="2" fill="#FFCB0A"/>
<circle cx="18" cy="130" r="2" fill="#FFCB0A"/>
<circle cx="18" cy="146" r="2" fill="#FFCB0A"/>
<circle cx="10" cy="130" r="2" fill="#FFCB0A"/>
<circle cx="10" cy="146" r="2" fill="#FFCB0A"/>
<circle cx="26" cy="130" r="2" fill="#FFCB0A"/>
<circle cx="26" cy="146" r="2" fill="#FFCB0A"/>
<circle cx="2" cy="138" r="2" fill="#FFCB0A"/>
<circle cx="2" cy="154" r="2" fill="#FFCB0A"/>
<circle cx="18" cy="138" r="2" fill="#FFCB0A"/>
<circle cx="18" cy="154" r="2" fill="#FFCB0A"/>
<circle cx="10" cy="138" r="2" fill="#FFCB0A"/>
<circle cx="10" cy="154" r="2" fill="#FFCB0A"/>
<circle cx="26" cy="138" r="2" fill="#FFCB0A"/>
<circle cx="26" cy="154" r="2" fill="#FFCB0A"/>
<circle cx="2" cy="162" r="2" fill="#FFCB0A"/>
<circle cx="2" cy="178" r="2" fill="#FFCB0A"/>
<circle cx="18" cy="162" r="2" fill="#FFCB0A"/>
<circle cx="18" cy="178" r="2" fill="#FFCB0A"/>
<circle cx="10" cy="162" r="2" fill="#FFCB0A"/>
<circle cx="10" cy="178" r="2" fill="#FFCB0A"/>
<circle cx="26" cy="162" r="2" fill="#FFCB0A"/>
<circle cx="26" cy="178" r="2" fill="#FFCB0A"/>
<circle cx="2" cy="170" r="2" fill="#FFCB0A"/>
<circle cx="2" cy="186" r="2" fill="#FFCB0A"/>
<circle cx="18" cy="170" r="2" fill="#FFCB0A"/>
<circle cx="18" cy="186" r="2" fill="#FFCB0A"/>
<circle cx="10" cy="170" r="2" fill="#FFCB0A"/>
<circle cx="10" cy="186" r="2" fill="#FFCB0A"/>
<circle cx="26" cy="170" r="2" fill="#FFCB0A"/>
<circle cx="26" cy="186" r="2" fill="#FFCB0A"/>
<circle cx="2" cy="194" r="2" fill="#FFCB0A"/>
<circle cx="2" cy="210" r="2" fill="#FFCB0A"/>
<circle cx="18" cy="194" r="2" fill="#FFCB0A"/>
<circle cx="18" cy="210" r="2" fill="#FFCB0A"/>
<circle cx="10" cy="194" r="2" fill="#FFCB0A"/>
<circle cx="10" cy="210" r="2" fill="#FFCB0A"/>
<circle cx="26" cy="194" r="2" fill="#FFCB0A"/>
<circle cx="26" cy="210" r="2" fill="#FFCB0A"/>
<circle cx="2" cy="202" r="2" fill="#FFCB0A"/>
<circle cx="2" cy="218" r="2" fill="#FFCB0A"/>
<circle cx="18" cy="202" r="2" fill="#FFCB0A"/>
<circle cx="18" cy="218" r="2" fill="#FFCB0A"/>
<circle cx="10" cy="202" r="2" fill="#FFCB0A"/>
<circle cx="10" cy="218" r="2" fill="#FFCB0A"/>
<circle cx="26" cy="202" r="2" fill="#FFCB0A"/>
<circle cx="26" cy="218" r="2" fill="#FFCB0A"/>
<circle cx="2" cy="226" r="2" fill="#FFCB0A"/>
<circle cx="2" cy="242" r="2" fill="#FFCB0A"/>
<circle cx="18" cy="226" r="2" fill="#FFCB0A"/>
<circle cx="18" cy="242" r="2" fill="#FFCB0A"/>
<circle cx="10" cy="226" r="2" fill="#FFCB0A"/>
<circle cx="10" cy="242" r="2" fill="#FFCB0A"/>
<circle cx="26" cy="226" r="2" fill="#FFCB0A"/>
<circle cx="26" cy="242" r="2" fill="#FFCB0A"/>
<circle cx="2" cy="234" r="2" fill="#FFCB0A"/>
<circle cx="2" cy="250" r="2" fill="#FFCB0A"/>
<circle cx="18" cy="234" r="2" fill="#FFCB0A"/>
<circle cx="18" cy="250" r="2" fill="#FFCB0A"/>
<circle cx="10" cy="234" r="2" fill="#FFCB0A"/>
<circle cx="10" cy="250" r="2" fill="#FFCB0A"/>
<circle cx="26" cy="234" r="2" fill="#FFCB0A"/>
<circle cx="26" cy="250" r="2" fill="#FFCB0A"/>
<circle cx="34" cy="130" r="2" fill="#FFCB0A"/>
<circle cx="34" cy="146" r="2" fill="#FFCB0A"/>
<circle cx="50" cy="130" r="2" fill="#FFCB0A"/>
<circle cx="50" cy="146" r="2" fill="#FFCB0A"/>
<circle cx="42" cy="130" r="2" fill="#FFCB0A"/>
<circle cx="42" cy="146" r="2" fill="#FFCB0A"/>
<circle cx="58" cy="130" r="2" fill="#FFCB0A"/>
<circle cx="58" cy="146" r="2" fill="#FFCB0A"/>
<circle cx="34" cy="138" r="2" fill="#FFCB0A"/>
<circle cx="34" cy="154" r="2" fill="#FFCB0A"/>
<circle cx="50" cy="138" r="2" fill="#FFCB0A"/>
<circle cx="50" cy="154" r="2" fill="#FFCB0A"/>
<circle cx="42" cy="138" r="2" fill="#FFCB0A"/>
<circle cx="42" cy="154" r="2" fill="#FFCB0A"/>
<circle cx="58" cy="138" r="2" fill="#FFCB0A"/>
<circle cx="58" cy="154" r="2" fill="#FFCB0A"/>
<circle cx="34" cy="162" r="2" fill="#FFCB0A"/>
<circle cx="34" cy="178" r="2" fill="#FFCB0A"/>
<circle cx="50" cy="162" r="2" fill="#FFCB0A"/>
<circle cx="50" cy="178" r="2" fill="#FFCB0A"/>
<circle cx="42" cy="162" r="2" fill="#FFCB0A"/>
<circle cx="42" cy="178" r="2" fill="#FFCB0A"/>
<circle cx="58" cy="162" r="2" fill="#FFCB0A"/>
<circle cx="58" cy="178" r="2" fill="#FFCB0A"/>
<circle cx="34" cy="170" r="2" fill="#FFCB0A"/>
<circle cx="34" cy="186" r="2" fill="#FFCB0A"/>
<circle cx="50" cy="170" r="2" fill="#FFCB0A"/>
<circle cx="50" cy="186" r="2" fill="#FFCB0A"/>
<circle cx="42" cy="170" r="2" fill="#FFCB0A"/>
<circle cx="42" cy="186" r="2" fill="#FFCB0A"/>
<circle cx="58" cy="170" r="2" fill="#FFCB0A"/>
<circle cx="58" cy="186" r="2" fill="#FFCB0A"/>
<circle cx="34" cy="194" r="2" fill="#FFCB0A"/>
<circle cx="34" cy="210" r="2" fill="#FFCB0A"/>
<circle cx="50" cy="194" r="2" fill="#FFCB0A"/>
<circle cx="50" cy="210" r="2" fill="#FFCB0A"/>
<circle cx="42" cy="194" r="2" fill="#FFCB0A"/>
<circle cx="42" cy="210" r="2" fill="#FFCB0A"/>
<circle cx="58" cy="194" r="2" fill="#FFCB0A"/>
<circle cx="58" cy="210" r="2" fill="#FFCB0A"/>
<circle cx="34" cy="202" r="2" fill="#FFCB0A"/>
<circle cx="34" cy="218" r="2" fill="#FFCB0A"/>
<circle cx="50" cy="202" r="2" fill="#FFCB0A"/>
<circle cx="50" cy="218" r="2" fill="#FFCB0A"/>
<circle cx="42" cy="202" r="2" fill="#FFCB0A"/>
<circle cx="42" cy="218" r="2" fill="#FFCB0A"/>
<circle cx="58" cy="202" r="2" fill="#FFCB0A"/>
<circle cx="58" cy="218" r="2" fill="#FFCB0A"/>
<circle cx="34" cy="226" r="2" fill="#FFCB0A"/>
<circle cx="34" cy="242" r="2" fill="#FFCB0A"/>
<circle cx="50" cy="226" r="2" fill="#FFCB0A"/>
<circle cx="50" cy="242" r="2" fill="#FFCB0A"/>
<circle cx="42" cy="226" r="2" fill="#FFCB0A"/>
<circle cx="42" cy="242" r="2" fill="#FFCB0A"/>
<circle cx="58" cy="226" r="2" fill="#FFCB0A"/>
<circle cx="58" cy="242" r="2" fill="#FFCB0A"/>
<circle cx="34" cy="234" r="2" fill="#FFCB0A"/>
<circle cx="34" cy="250" r="2" fill="#FFCB0A"/>
<circle cx="50" cy="234" r="2" fill="#FFCB0A"/>
<circle cx="50" cy="250" r="2" fill="#FFCB0A"/>
<circle cx="42" cy="234" r="2" fill="#FFCB0A"/>
<circle cx="42" cy="250" r="2" fill="#FFCB0A"/>
<circle cx="58" cy="234" r="2" fill="#FFCB0A"/>
<circle cx="58" cy="250" r="2" fill="#FFCB0A"/>
<circle cx="66" cy="130" r="2" fill="#FFCB0A"/>
<circle cx="66" cy="146" r="2" fill="#FFCB0A"/>
<circle cx="82" cy="130" r="2" fill="#FFCB0A"/>
<circle cx="82" cy="146" r="2" fill="#FFCB0A"/>
<circle cx="74" cy="130" r="2" fill="#FFCB0A"/>
<circle cx="74" cy="146" r="2" fill="#FFCB0A"/>
<circle cx="90" cy="130" r="2" fill="#FFCB0A"/>
<circle cx="90" cy="146" r="2" fill="#FFCB0A"/>
<circle cx="66" cy="138" r="2" fill="#FFCB0A"/>
<circle cx="66" cy="154" r="2" fill="#FFCB0A"/>
<circle cx="82" cy="138" r="2" fill="#FFCB0A"/>
<circle cx="82" cy="154" r="2" fill="#FFCB0A"/>
<circle cx="74" cy="138" r="2" fill="#FFCB0A"/>
<circle cx="74" cy="154" r="2" fill="#FFCB0A"/>
<circle cx="90" cy="138" r="2" fill="#FFCB0A"/>
<circle cx="90" cy="154" r="2" fill="#FFCB0A"/>
<circle cx="66" cy="162" r="2" fill="#FFCB0A"/>
<circle cx="66" cy="178" r="2" fill="#FFCB0A"/>
<circle cx="82" cy="162" r="2" fill="#FFCB0A"/>
<circle cx="82" cy="178" r="2" fill="#FFCB0A"/>
<circle cx="74" cy="162" r="2" fill="#FFCB0A"/>
<circle cx="74" cy="178" r="2" fill="#FFCB0A"/>
<circle cx="90" cy="162" r="2" fill="#FFCB0A"/>
<circle cx="90" cy="178" r="2" fill="#FFCB0A"/>
<circle cx="66" cy="170" r="2" fill="#FFCB0A"/>
<circle cx="66" cy="186" r="2" fill="#FFCB0A"/>
<circle cx="82" cy="170" r="2" fill="#FFCB0A"/>
<circle cx="82" cy="186" r="2" fill="#FFCB0A"/>
<circle cx="74" cy="170" r="2" fill="#FFCB0A"/>
<circle cx="74" cy="186" r="2" fill="#FFCB0A"/>
<circle cx="90" cy="170" r="2" fill="#FFCB0A"/>
<circle cx="90" cy="186" r="2" fill="#FFCB0A"/>
<circle cx="66" cy="194" r="2" fill="#FFCB0A"/>
<circle cx="66" cy="210" r="2" fill="#FFCB0A"/>
<circle cx="82" cy="194" r="2" fill="#FFCB0A"/>
<circle cx="82" cy="210" r="2" fill="#FFCB0A"/>
<circle cx="74" cy="194" r="2" fill="#FFCB0A"/>
<circle cx="74" cy="210" r="2" fill="#FFCB0A"/>
<circle cx="90" cy="194" r="2" fill="#FFCB0A"/>
<circle cx="90" cy="210" r="2" fill="#FFCB0A"/>
<circle cx="66" cy="202" r="2" fill="#FFCB0A"/>
<circle cx="66" cy="218" r="2" fill="#FFCB0A"/>
<circle cx="82" cy="202" r="2" fill="#FFCB0A"/>
<circle cx="82" cy="218" r="2" fill="#FFCB0A"/>
<circle cx="74" cy="202" r="2" fill="#FFCB0A"/>
<circle cx="74" cy="218" r="2" fill="#FFCB0A"/>
<circle cx="90" cy="202" r="2" fill="#FFCB0A"/>
<circle cx="90" cy="218" r="2" fill="#FFCB0A"/>
<circle cx="66" cy="226" r="2" fill="#FFCB0A"/>
<circle cx="66" cy="242" r="2" fill="#FFCB0A"/>
<circle cx="82" cy="226" r="2" fill="#FFCB0A"/>
<circle cx="82" cy="242" r="2" fill="#FFCB0A"/>
<circle cx="74" cy="226" r="2" fill="#FFCB0A"/>
<circle cx="74" cy="242" r="2" fill="#FFCB0A"/>
<circle cx="90" cy="226" r="2" fill="#FFCB0A"/>
<circle cx="90" cy="242" r="2" fill="#FFCB0A"/>
<circle cx="66" cy="234" r="2" fill="#FFCB0A"/>
<circle cx="66" cy="250" r="2" fill="#FFCB0A"/>
<circle cx="82" cy="234" r="2" fill="#FFCB0A"/>
<circle cx="82" cy="250" r="2" fill="#FFCB0A"/>
<circle cx="74" cy="234" r="2" fill="#FFCB0A"/>
<circle cx="74" cy="250" r="2" fill="#FFCB0A"/>
<circle cx="90" cy="234" r="2" fill="#FFCB0A"/>
<circle cx="90" cy="250" r="2" fill="#FFCB0A"/>
<circle cx="98" cy="130" r="2" fill="#FFCB0A"/>
<circle cx="98" cy="146" r="2" fill="#FFCB0A"/>
<circle cx="114" cy="130" r="2" fill="#FFCB0A"/>
<circle cx="114" cy="146" r="2" fill="#FFCB0A"/>
<circle cx="106" cy="130" r="2" fill="#FFCB0A"/>
<circle cx="106" cy="146" r="2" fill="#FFCB0A"/>
<circle cx="122" cy="130" r="2" fill="#FFCB0A"/>
<circle cx="122" cy="146" r="2" fill="#FFCB0A"/>
<circle cx="98" cy="138" r="2" fill="#FFCB0A"/>
<circle cx="98" cy="154" r="2" fill="#FFCB0A"/>
<circle cx="114" cy="138" r="2" fill="#FFCB0A"/>
<circle cx="114" cy="154" r="2" fill="#FFCB0A"/>
<circle cx="106" cy="138" r="2" fill="#FFCB0A"/>
<circle cx="106" cy="154" r="2" fill="#FFCB0A"/>
<circle cx="122" cy="138" r="2" fill="#FFCB0A"/>
<circle cx="122" cy="154" r="2" fill="#FFCB0A"/>
<circle cx="98" cy="162" r="2" fill="#FFCB0A"/>
<circle cx="98" cy="178" r="2" fill="#FFCB0A"/>
<circle cx="114" cy="162" r="2" fill="#FFCB0A"/>
<circle cx="114" cy="178" r="2" fill="#FFCB0A"/>
<circle cx="106" cy="162" r="2" fill="#FFCB0A"/>
<circle cx="106" cy="178" r="2" fill="#FFCB0A"/>
<circle cx="122" cy="162" r="2" fill="#FFCB0A"/>
<circle cx="122" cy="178" r="2" fill="#FFCB0A"/>
<circle cx="98" cy="170" r="2" fill="#FFCB0A"/>
<circle cx="98" cy="186" r="2" fill="#FFCB0A"/>
<circle cx="114" cy="170" r="2" fill="#FFCB0A"/>
<circle cx="114" cy="186" r="2" fill="#FFCB0A"/>
<circle cx="106" cy="170" r="2" fill="#FFCB0A"/>
<circle cx="106" cy="186" r="2" fill="#FFCB0A"/>
<circle cx="122" cy="170" r="2" fill="#FFCB0A"/>
<circle cx="122" cy="186" r="2" fill="#FFCB0A"/>
<circle cx="98" cy="194" r="2" fill="#FFCB0A"/>
<circle cx="98" cy="210" r="2" fill="#FFCB0A"/>
<circle cx="114" cy="194" r="2" fill="#FFCB0A"/>
<circle cx="114" cy="210" r="2" fill="#FFCB0A"/>
<circle cx="106" cy="194" r="2" fill="#FFCB0A"/>
<circle cx="106" cy="210" r="2" fill="#FFCB0A"/>
<circle cx="122" cy="194" r="2" fill="#FFCB0A"/>
<circle cx="122" cy="210" r="2" fill="#FFCB0A"/>
<circle cx="98" cy="202" r="2" fill="#FFCB0A"/>
<circle cx="98" cy="218" r="2" fill="#FFCB0A"/>
<circle cx="114" cy="202" r="2" fill="#FFCB0A"/>
<circle cx="114" cy="218" r="2" fill="#FFCB0A"/>
<circle cx="106" cy="202" r="2" fill="#FFCB0A"/>
<circle cx="106" cy="218" r="2" fill="#FFCB0A"/>
<circle cx="122" cy="202" r="2" fill="#FFCB0A"/>
<circle cx="122" cy="218" r="2" fill="#FFCB0A"/>
<circle cx="98" cy="226" r="2" fill="#FFCB0A"/>
<circle cx="98" cy="242" r="2" fill="#FFCB0A"/>
<circle cx="114" cy="226" r="2" fill="#FFCB0A"/>
<circle cx="114" cy="242" r="2" fill="#FFCB0A"/>
<circle cx="106" cy="226" r="2" fill="#FFCB0A"/>
<circle cx="106" cy="242" r="2" fill="#FFCB0A"/>
<circle cx="122" cy="226" r="2" fill="#FFCB0A"/>
<circle cx="122" cy="242" r="2" fill="#FFCB0A"/>
<circle cx="98" cy="234" r="2" fill="#FFCB0A"/>
<circle cx="98" cy="250" r="2" fill="#FFCB0A"/>
<circle cx="114" cy="234" r="2" fill="#FFCB0A"/>
<circle cx="114" cy="250" r="2" fill="#FFCB0A"/>
<circle cx="106" cy="234" r="2" fill="#FFCB0A"/>
<circle cx="106" cy="250" r="2" fill="#FFCB0A"/>
<circle cx="122" cy="234" r="2" fill="#FFCB0A"/>
<circle cx="122" cy="250" r="2" fill="#FFCB0A"/>
<circle cx="130" cy="130" r="2" fill="#FFCB0A"/>
<circle cx="130" cy="146" r="2" fill="#FFCB0A"/>
<circle cx="146" cy="130" r="2" fill="#FFCB0A"/>
<circle cx="146" cy="146" r="2" fill="#FFCB0A"/>
<circle cx="138" cy="130" r="2" fill="#FFCB0A"/>
<circle cx="138" cy="146" r="2" fill="#FFCB0A"/>
<circle cx="154" cy="130" r="2" fill="#FFCB0A"/>
<circle cx="154" cy="146" r="2" fill="#FFCB0A"/>
<circle cx="130" cy="138" r="2" fill="#FFCB0A"/>
<circle cx="130" cy="154" r="2" fill="#FFCB0A"/>
<circle cx="146" cy="138" r="2" fill="#FFCB0A"/>
<circle cx="146" cy="154" r="2" fill="#FFCB0A"/>
<circle cx="138" cy="138" r="2" fill="#FFCB0A"/>
<circle cx="138" cy="154" r="2" fill="#FFCB0A"/>
<circle cx="154" cy="138" r="2" fill="#FFCB0A"/>
<circle cx="154" cy="154" r="2" fill="#FFCB0A"/>
<circle cx="130" cy="162" r="2" fill="#FFCB0A"/>
<circle cx="130" cy="178" r="2" fill="#FFCB0A"/>
<circle cx="146" cy="162" r="2" fill="#FFCB0A"/>
<circle cx="146" cy="178" r="2" fill="#FFCB0A"/>
<circle cx="138" cy="162" r="2" fill="#FFCB0A"/>
<circle cx="138" cy="178" r="2" fill="#FFCB0A"/>
<circle cx="154" cy="162" r="2" fill="#FFCB0A"/>
<circle cx="154" cy="178" r="2" fill="#FFCB0A"/>
<circle cx="130" cy="170" r="2" fill="#FFCB0A"/>
<circle cx="130" cy="186" r="2" fill="#FFCB0A"/>
<circle cx="146" cy="170" r="2" fill="#FFCB0A"/>
<circle cx="146" cy="186" r="2" fill="#FFCB0A"/>
<circle cx="138" cy="170" r="2" fill="#FFCB0A"/>
<circle cx="138" cy="186" r="2" fill="#FFCB0A"/>
<circle cx="154" cy="170" r="2" fill="#FFCB0A"/>
<circle cx="154" cy="186" r="2" fill="#FFCB0A"/>
<circle cx="130" cy="194" r="2" fill="#FFCB0A"/>
<circle cx="130" cy="210" r="2" fill="#FFCB0A"/>
<circle cx="146" cy="194" r="2" fill="#FFCB0A"/>
<circle cx="146" cy="210" r="2" fill="#FFCB0A"/>
<circle cx="138" cy="194" r="2" fill="#FFCB0A"/>
<circle cx="138" cy="210" r="2" fill="#FFCB0A"/>
<circle cx="154" cy="194" r="2" fill="#FFCB0A"/>
<circle cx="154" cy="210" r="2" fill="#FFCB0A"/>
<circle cx="130" cy="202" r="2" fill="#FFCB0A"/>
<circle cx="130" cy="218" r="2" fill="#FFCB0A"/>
<circle cx="146" cy="202" r="2" fill="#FFCB0A"/>
<circle cx="146" cy="218" r="2" fill="#FFCB0A"/>
<circle cx="138" cy="202" r="2" fill="#FFCB0A"/>
<circle cx="138" cy="218" r="2" fill="#FFCB0A"/>
<circle cx="154" cy="202" r="2" fill="#FFCB0A"/>
<circle cx="154" cy="218" r="2" fill="#FFCB0A"/>
<circle cx="130" cy="226" r="2" fill="#FFCB0A"/>
<circle cx="130" cy="242" r="2" fill="#FFCB0A"/>
<circle cx="146" cy="226" r="2" fill="#FFCB0A"/>
<circle cx="146" cy="242" r="2" fill="#FFCB0A"/>
<circle cx="138" cy="226" r="2" fill="#FFCB0A"/>
<circle cx="138" cy="242" r="2" fill="#FFCB0A"/>
<circle cx="154" cy="226" r="2" fill="#FFCB0A"/>
<circle cx="154" cy="242" r="2" fill="#FFCB0A"/>
<circle cx="130" cy="234" r="2" fill="#FFCB0A"/>
<circle cx="130" cy="250" r="2" fill="#FFCB0A"/>
<circle cx="146" cy="234" r="2" fill="#FFCB0A"/>
<circle cx="146" cy="250" r="2" fill="#FFCB0A"/>
<circle cx="138" cy="234" r="2" fill="#FFCB0A"/>
<circle cx="138" cy="250" r="2" fill="#FFCB0A"/>
<circle cx="154" cy="234" r="2" fill="#FFCB0A"/>
<circle cx="154" cy="250" r="2" fill="#FFCB0A"/>
<circle cx="162" cy="130" r="2" fill="#FFCB0A"/>
<circle cx="162" cy="146" r="2" fill="#FFCB0A"/>
<circle cx="178" cy="130" r="2" fill="#FFCB0A"/>
<circle cx="178" cy="146" r="2" fill="#FFCB0A"/>
<circle cx="170" cy="130" r="2" fill="#FFCB0A"/>
<circle cx="170" cy="146" r="2" fill="#FFCB0A"/>
<circle cx="186" cy="130" r="2" fill="#FFCB0A"/>
<circle cx="186" cy="146" r="2" fill="#FFCB0A"/>
<circle cx="162" cy="138" r="2" fill="#FFCB0A"/>
<circle cx="162" cy="154" r="2" fill="#FFCB0A"/>
<circle cx="178" cy="138" r="2" fill="#FFCB0A"/>
<circle cx="178" cy="154" r="2" fill="#FFCB0A"/>
<circle cx="170" cy="138" r="2" fill="#FFCB0A"/>
<circle cx="170" cy="154" r="2" fill="#FFCB0A"/>
<circle cx="186" cy="138" r="2" fill="#FFCB0A"/>
<circle cx="186" cy="154" r="2" fill="#FFCB0A"/>
<circle cx="162" cy="162" r="2" fill="#FFCB0A"/>
<circle cx="162" cy="178" r="2" fill="#FFCB0A"/>
<circle cx="178" cy="162" r="2" fill="#FFCB0A"/>
<circle cx="178" cy="178" r="2" fill="#FFCB0A"/>
<circle cx="170" cy="162" r="2" fill="#FFCB0A"/>
<circle cx="170" cy="178" r="2" fill="#FFCB0A"/>
<circle cx="186" cy="162" r="2" fill="#FFCB0A"/>
<circle cx="186" cy="178" r="2" fill="#FFCB0A"/>
<circle cx="162" cy="170" r="2" fill="#FFCB0A"/>
<circle cx="162" cy="186" r="2" fill="#FFCB0A"/>
<circle cx="178" cy="170" r="2" fill="#FFCB0A"/>
<circle cx="178" cy="186" r="2" fill="#FFCB0A"/>
<circle cx="170" cy="170" r="2" fill="#FFCB0A"/>
<circle cx="170" cy="186" r="2" fill="#FFCB0A"/>
<circle cx="186" cy="170" r="2" fill="#FFCB0A"/>
<circle cx="186" cy="186" r="2" fill="#FFCB0A"/>
<circle cx="162" cy="194" r="2" fill="#FFCB0A"/>
<circle cx="162" cy="210" r="2" fill="#FFCB0A"/>
<circle cx="178" cy="194" r="2" fill="#FFCB0A"/>
<circle cx="178" cy="210" r="2" fill="#FFCB0A"/>
<circle cx="170" cy="194" r="2" fill="#FFCB0A"/>
<circle cx="170" cy="210" r="2" fill="#FFCB0A"/>
<circle cx="186" cy="194" r="2" fill="#FFCB0A"/>
<circle cx="186" cy="210" r="2" fill="#FFCB0A"/>
<circle cx="162" cy="202" r="2" fill="#FFCB0A"/>
<circle cx="162" cy="218" r="2" fill="#FFCB0A"/>
<circle cx="178" cy="202" r="2" fill="#FFCB0A"/>
<circle cx="178" cy="218" r="2" fill="#FFCB0A"/>
<circle cx="170" cy="202" r="2" fill="#FFCB0A"/>
<circle cx="170" cy="218" r="2" fill="#FFCB0A"/>
<circle cx="186" cy="202" r="2" fill="#FFCB0A"/>
<circle cx="186" cy="218" r="2" fill="#FFCB0A"/>
<circle cx="162" cy="226" r="2" fill="#FFCB0A"/>
<circle cx="162" cy="242" r="2" fill="#FFCB0A"/>
<circle cx="178" cy="226" r="2" fill="#FFCB0A"/>
<circle cx="178" cy="242" r="2" fill="#FFCB0A"/>
<circle cx="170" cy="226" r="2" fill="#FFCB0A"/>
<circle cx="170" cy="242" r="2" fill="#FFCB0A"/>
<circle cx="186" cy="226" r="2" fill="#FFCB0A"/>
<circle cx="186" cy="242" r="2" fill="#FFCB0A"/>
<circle cx="162" cy="234" r="2" fill="#FFCB0A"/>
<circle cx="162" cy="250" r="2" fill="#FFCB0A"/>
<circle cx="178" cy="234" r="2" fill="#FFCB0A"/>
<circle cx="178" cy="250" r="2" fill="#FFCB0A"/>
<circle cx="170" cy="234" r="2" fill="#FFCB0A"/>
<circle cx="170" cy="250" r="2" fill="#FFCB0A"/>
<circle cx="186" cy="234" r="2" fill="#FFCB0A"/>
<circle cx="186" cy="250" r="2" fill="#FFCB0A"/>
<circle cx="194" cy="130" r="2" fill="#FFCB0A"/>
<circle cx="194" cy="146" r="2" fill="#FFCB0A"/>
<circle cx="210" cy="130" r="2" fill="#FFCB0A"/>
<circle cx="210" cy="146" r="2" fill="#FFCB0A"/>
<circle cx="202" cy="130" r="2" fill="#FFCB0A"/>
<circle cx="202" cy="146" r="2" fill="#FFCB0A"/>
<circle cx="218" cy="130" r="2" fill="#FFCB0A"/>
<circle cx="218" cy="146" r="2" fill="#FFCB0A"/>
<circle cx="194" cy="138" r="2" fill="#FFCB0A"/>
<circle cx="194" cy="154" r="2" fill="#FFCB0A"/>
<circle cx="210" cy="138" r="2" fill="#FFCB0A"/>
<circle cx="210" cy="154" r="2" fill="#FFCB0A"/>
<circle cx="202" cy="138" r="2" fill="#FFCB0A"/>
<circle cx="202" cy="154" r="2" fill="#FFCB0A"/>
<circle cx="218" cy="138" r="2" fill="#FFCB0A"/>
<circle cx="218" cy="154" r="2" fill="#FFCB0A"/>
<circle cx="194" cy="162" r="2" fill="#FFCB0A"/>
<circle cx="194" cy="178" r="2" fill="#FFCB0A"/>
<circle cx="210" cy="162" r="2" fill="#FFCB0A"/>
<circle cx="210" cy="178" r="2" fill="#FFCB0A"/>
<circle cx="202" cy="162" r="2" fill="#FFCB0A"/>
<circle cx="202" cy="178" r="2" fill="#FFCB0A"/>
<circle cx="218" cy="162" r="2" fill="#FFCB0A"/>
<circle cx="218" cy="178" r="2" fill="#FFCB0A"/>
<circle cx="194" cy="170" r="2" fill="#FFCB0A"/>
<circle cx="194" cy="186" r="2" fill="#FFCB0A"/>
<circle cx="210" cy="170" r="2" fill="#FFCB0A"/>
<circle cx="210" cy="186" r="2" fill="#FFCB0A"/>
<circle cx="202" cy="170" r="2" fill="#FFCB0A"/>
<circle cx="202" cy="186" r="2" fill="#FFCB0A"/>
<circle cx="218" cy="170" r="2" fill="#FFCB0A"/>
<circle cx="218" cy="186" r="2" fill="#FFCB0A"/>
<circle cx="194" cy="194" r="2" fill="#FFCB0A"/>
<circle cx="194" cy="210" r="2" fill="#FFCB0A"/>
<circle cx="210" cy="194" r="2" fill="#FFCB0A"/>
<circle cx="210" cy="210" r="2" fill="#FFCB0A"/>
<circle cx="202" cy="194" r="2" fill="#FFCB0A"/>
<circle cx="202" cy="210" r="2" fill="#FFCB0A"/>
<circle cx="218" cy="194" r="2" fill="#FFCB0A"/>
<circle cx="218" cy="210" r="2" fill="#FFCB0A"/>
<circle cx="194" cy="202" r="2" fill="#FFCB0A"/>
<circle cx="194" cy="218" r="2" fill="#FFCB0A"/>
<circle cx="210" cy="202" r="2" fill="#FFCB0A"/>
<circle cx="210" cy="218" r="2" fill="#FFCB0A"/>
<circle cx="202" cy="202" r="2" fill="#FFCB0A"/>
<circle cx="202" cy="218" r="2" fill="#FFCB0A"/>
<circle cx="218" cy="202" r="2" fill="#FFCB0A"/>
<circle cx="218" cy="218" r="2" fill="#FFCB0A"/>
<circle cx="194" cy="226" r="2" fill="#FFCB0A"/>
<circle cx="194" cy="242" r="2" fill="#FFCB0A"/>
<circle cx="210" cy="226" r="2" fill="#FFCB0A"/>
<circle cx="210" cy="242" r="2" fill="#FFCB0A"/>
<circle cx="202" cy="226" r="2" fill="#FFCB0A"/>
<circle cx="202" cy="242" r="2" fill="#FFCB0A"/>
<circle cx="218" cy="226" r="2" fill="#FFCB0A"/>
<circle cx="218" cy="242" r="2" fill="#FFCB0A"/>
<circle cx="194" cy="234" r="2" fill="#FFCB0A"/>
<circle cx="194" cy="250" r="2" fill="#FFCB0A"/>
<circle cx="210" cy="234" r="2" fill="#FFCB0A"/>
<circle cx="210" cy="250" r="2" fill="#FFCB0A"/>
<circle cx="202" cy="234" r="2" fill="#FFCB0A"/>
<circle cx="202" cy="250" r="2" fill="#FFCB0A"/>
<circle cx="218" cy="234" r="2" fill="#FFCB0A"/>
<circle cx="218" cy="250" r="2" fill="#FFCB0A"/>
<circle cx="226" cy="130" r="2" fill="#FFCB0A"/>
<circle cx="226" cy="146" r="2" fill="#FFCB0A"/>
<circle cx="242" cy="130" r="2" fill="#FFCB0A"/>
<circle cx="242" cy="146" r="2" fill="#FFCB0A"/>
<circle cx="234" cy="130" r="2" fill="#FFCB0A"/>
<circle cx="234" cy="146" r="2" fill="#FFCB0A"/>
<circle cx="250" cy="130" r="2" fill="#FFCB0A"/>
<circle cx="250" cy="146" r="2" fill="#FFCB0A"/>
<circle cx="226" cy="138" r="2" fill="#FFCB0A"/>
<circle cx="226" cy="154" r="2" fill="#FFCB0A"/>
<circle cx="242" cy="138" r="2" fill="#FFCB0A"/>
<circle cx="242" cy="154" r="2" fill="#FFCB0A"/>
<circle cx="234" cy="138" r="2" fill="#FFCB0A"/>
<circle cx="234" cy="154" r="2" fill="#FFCB0A"/>
<circle cx="250" cy="138" r="2" fill="#FFCB0A"/>
<circle cx="250" cy="154" r="2" fill="#FFCB0A"/>
<circle cx="226" cy="162" r="2" fill="#FFCB0A"/>
<circle cx="226" cy="178" r="2" fill="#FFCB0A"/>
<circle cx="242" cy="162" r="2" fill="#FFCB0A"/>
<circle cx="242" cy="178" r="2" fill="#FFCB0A"/>
<circle cx="234" cy="162" r="2" fill="#FFCB0A"/>
<circle cx="234" cy="178" r="2" fill="#FFCB0A"/>
<circle cx="250" cy="162" r="2" fill="#FFCB0A"/>
<circle cx="250" cy="178" r="2" fill="#FFCB0A"/>
<circle cx="226" cy="170" r="2" fill="#FFCB0A"/>
<circle cx="226" cy="186" r="2" fill="#FFCB0A"/>
<circle cx="242" cy="170" r="2" fill="#FFCB0A"/>
<circle cx="242" cy="186" r="2" fill="#FFCB0A"/>
<circle cx="234" cy="170" r="2" fill="#FFCB0A"/>
<circle cx="234" cy="186" r="2" fill="#FFCB0A"/>
<circle cx="250" cy="170" r="2" fill="#FFCB0A"/>
<circle cx="250" cy="186" r="2" fill="#FFCB0A"/>
<circle cx="226" cy="194" r="2" fill="#FFCB0A"/>
<circle cx="226" cy="210" r="2" fill="#FFCB0A"/>
<circle cx="242" cy="194" r="2" fill="#FFCB0A"/>
<circle cx="242" cy="210" r="2" fill="#FFCB0A"/>
<circle cx="234" cy="194" r="2" fill="#FFCB0A"/>
<circle cx="234" cy="210" r="2" fill="#FFCB0A"/>
<circle cx="250" cy="194" r="2" fill="#FFCB0A"/>
<circle cx="250" cy="210" r="2" fill="#FFCB0A"/>
<circle cx="226" cy="202" r="2" fill="#FFCB0A"/>
<circle cx="226" cy="218" r="2" fill="#FFCB0A"/>
<circle cx="242" cy="202" r="2" fill="#FFCB0A"/>
<circle cx="242" cy="218" r="2" fill="#FFCB0A"/>
<circle cx="234" cy="202" r="2" fill="#FFCB0A"/>
<circle cx="234" cy="218" r="2" fill="#FFCB0A"/>
<circle cx="250" cy="202" r="2" fill="#FFCB0A"/>
<circle cx="250" cy="218" r="2" fill="#FFCB0A"/>
<circle cx="226" cy="226" r="2" fill="#FFCB0A"/>
<circle cx="226" cy="242" r="2" fill="#FFCB0A"/>
<circle cx="242" cy="226" r="2" fill="#FFCB0A"/>
<circle cx="242" cy="242" r="2" fill="#FFCB0A"/>
<circle cx="234" cy="226" r="2" fill="#FFCB0A"/>
<circle cx="234" cy="242" r="2" fill="#FFCB0A"/>
<circle cx="250" cy="226" r="2" fill="#FFCB0A"/>
<circle cx="250" cy="242" r="2" fill="#FFCB0A"/>
<circle cx="226" cy="234" r="2" fill="#FFCB0A"/>
<circle cx="226" cy="250" r="2" fill="#FFCB0A"/>
<circle cx="242" cy="234" r="2" fill="#FFCB0A"/>
<circle cx="242" cy="250" r="2" fill="#FFCB0A"/>
<circle cx="234" cy="234" r="2" fill="#FFCB0A"/>
<circle cx="234" cy="250" r="2" fill="#FFCB0A"/>
<circle cx="250" cy="234" r="2" fill="#FFCB0A"/>
<circle cx="250" cy="250" r="2" fill="#FFCB0A"/>
</g>
</svg>
