<svg width="171" height="147" viewBox="0 0 171 147" fill="none" xmlns="http://www.w3.org/2000/svg">
<path d="M24.6052 76.8371L24.5184 76.0217C24.5166 76.0055 24.5004 75.9982 24.4985 75.9838C24.4967 75.9675 24.5076 75.9548 24.5022 75.9404L24.2455 75.078C24.2418 75.0636 24.2256 75.06 24.2201 75.0473C24.2165 75.0347 24.2238 75.0202 24.2183 75.0093L23.8043 74.1579C23.7989 74.147 23.7845 74.1452 23.7772 74.1344C23.7718 74.1235 23.7772 74.1109 23.7718 74.1018L23.2439 73.3208C23.2367 73.3082 23.2204 73.31 23.2114 73.2991C23.2023 73.2883 23.2078 73.272 23.1969 73.2612L22.5768 72.6086C22.566 72.5977 22.5479 72.6013 22.5371 72.5905C22.5262 72.5796 22.5262 72.5616 22.5136 72.5525L21.8501 72.0716C21.8356 72.0608 21.8175 72.068 21.8031 72.059C21.7868 72.0499 21.7832 72.0283 21.7651 72.021L21.0962 71.7318C21.0727 71.7209 21.0492 71.7372 21.0239 71.73C20.9986 71.7245 20.9859 71.6974 20.9588 71.6956L20.3387 71.636C20.3062 71.6323 20.2827 71.6595 20.252 71.6631C20.2212 71.6667 20.1941 71.645 20.1634 71.654L19.6355 71.8167C19.6174 71.8222 19.6102 71.8439 19.5939 71.8529C19.5758 71.8601 19.556 71.8493 19.5397 71.8601L19.2522 72.0301C19.236 72.0391 19.236 72.0626 19.2197 72.0716C19.2052 72.0825 19.1854 72.0771 19.1727 72.0897L18.7696 72.4639C18.7461 72.4874 18.7497 72.52 18.7316 72.5453C18.7135 72.5724 18.6792 72.5778 18.6665 72.6068L18.4044 73.178C18.3935 73.2033 18.408 73.225 18.4026 73.2503C18.3953 73.2738 18.37 73.2865 18.3682 73.31L18.2814 74.0241C18.2814 74.0349 18.2887 74.0422 18.2887 74.053C18.2887 74.0621 18.2778 74.0693 18.2778 74.0801V75.3998C18.2778 75.4215 18.2977 75.436 18.3013 75.4559C18.3086 75.5155 18.3357 75.5589 18.3664 75.6114C18.3953 75.662 18.4188 75.7054 18.4658 75.7415C18.4821 75.756 18.4839 75.7795 18.5038 75.7903L19.3571 76.2839C19.4294 76.3236 19.5071 76.3435 19.5831 76.3435C19.659 76.3435 19.7349 76.3236 19.8054 76.2857L20.0947 76.123C20.1146 76.1121 20.1164 76.085 20.1345 76.0742C20.1815 76.0362 20.2068 75.9946 20.2375 75.944C20.2682 75.8916 20.2936 75.8482 20.3008 75.7885C20.3044 75.7668 20.3261 75.7524 20.3261 75.7307V75.1992L22.5479 76.4809L22.5588 76.5803V77.882C22.5588 77.9055 22.5804 77.9199 22.5841 77.9398C22.5913 77.9995 22.6166 78.0429 22.6473 78.0935C22.6781 78.1459 22.7016 78.1893 22.7504 78.2237C22.7667 78.2381 22.7685 78.2634 22.7883 78.2743L23.6489 78.7624C23.7194 78.8003 23.7953 78.8202 23.8712 78.8202C23.9472 78.8202 24.0249 78.8003 24.0972 78.7606L24.3792 78.5979C24.3991 78.587 24.3991 78.5617 24.4172 78.5491C24.4642 78.5129 24.4895 78.4695 24.5184 78.4171C24.5492 78.3665 24.5745 78.3231 24.5817 78.2634C24.5853 78.2417 24.6052 78.2273 24.6052 78.2074V76.8877C24.6052 76.8786 24.5962 76.8732 24.5962 76.8642C24.5962 76.8551 24.607 76.8461 24.6052 76.8371ZM19.2613 73.4944L19.4565 73.0678L19.7187 72.8255L20.0658 72.7134L20.5213 72.7568L21.0781 73.0009L21.089 73.0081L21.033 72.9846C21.0094 72.9737 20.9859 72.99 20.9606 72.9846C20.9353 72.9774 20.9227 72.952 20.8974 72.9502L20.4852 72.9141C20.4544 72.9105 20.4328 72.9376 20.4038 72.9412C20.3749 72.943 20.3478 72.9213 20.3189 72.9322L20.129 72.9882L19.9645 73.037C19.9284 73.0479 19.9157 73.084 19.885 73.1021C19.8543 73.1202 19.8163 73.1129 19.7892 73.1383L19.518 73.3895C19.4945 73.4112 19.4981 73.4456 19.48 73.4709C19.462 73.4962 19.4276 73.5034 19.4131 73.5324L19.2378 73.9138C19.2269 73.9373 19.2414 73.9608 19.236 73.9843C19.2287 74.0096 19.2034 74.0223 19.1998 74.0458L19.1872 74.1452V74.1072L19.2613 73.4944Z" fill="#00BD4C"/>
<path d="M53.3535 96.9322C53.3734 96.9195 53.3861 96.896 53.4041 96.8816C53.4258 96.8635 53.4403 96.8472 53.4584 96.8291C53.4764 96.8074 53.5018 96.7948 53.5162 96.7713C53.5271 96.7514 53.5162 96.7315 53.5234 96.7116C53.5379 96.6737 53.5469 96.6447 53.5524 96.6032C53.5542 96.5815 53.5759 96.567 53.5759 96.5471V86.6674C53.5759 86.6258 53.5415 86.5969 53.5307 86.5571C53.5198 86.5173 53.5361 86.4776 53.5144 86.4414C53.5036 86.4215 53.4801 86.4215 53.4674 86.4034C53.4294 86.3564 53.386 86.3311 53.3318 86.3004C53.2794 86.2697 53.2378 86.2443 53.18 86.2371C53.1583 86.2335 53.1456 86.2136 53.1239 86.2136C53.0823 86.2136 53.0552 86.248 53.0173 86.257C52.9775 86.2679 52.9341 86.2516 52.8979 86.2733L51.1787 87.2694L47.7565 89.2363C47.7366 89.2471 47.7366 89.2725 47.7185 89.2851C47.6715 89.3213 47.6462 89.3647 47.6173 89.4153C47.5866 89.4677 47.5613 89.5111 47.554 89.5707C47.5504 89.5924 47.5305 89.6051 47.5305 89.6268V97.5396V99.521C47.5305 99.5626 47.5649 99.5915 47.5757 99.6313C47.5848 99.6692 47.5703 99.7108 47.5902 99.747C47.6046 99.7723 47.6281 99.7831 47.6462 99.8012C47.6643 99.8229 47.6806 99.8392 47.7005 99.8554C47.7818 99.9241 47.8776 99.9711 47.9807 99.9711C48.0566 99.9711 48.1361 99.9512 48.2066 99.9115L53.3517 96.9358C53.3499 96.9358 53.3499 96.934 53.3535 96.9322ZM52.6702 95.768L51.8548 95.3033V87.9238L52.6702 87.452V95.768ZM48.429 97.8036L51.4047 96.0861L52.2146 96.5489L48.429 98.74V97.8036Z" fill="#00BD4C"/>
<path d="M64.2786 96.0338C64.2931 96.0592 64.3166 96.07 64.3347 96.0881C64.3528 96.1098 64.3672 96.1261 64.3889 96.1423C64.4703 96.2092 64.5661 96.258 64.6709 96.258C64.7469 96.258 64.8246 96.2381 64.8969 96.1984L70.0293 93.2353C70.0311 93.2335 70.0311 93.2299 70.0348 93.2281C70.0546 93.2173 70.0673 93.192 70.0854 93.1793C70.1071 93.1612 70.1215 93.1468 70.1378 93.1269C70.1559 93.1052 70.1812 93.0943 70.1956 93.0708C70.2065 93.0509 70.1956 93.0311 70.2029 93.0094C70.2191 92.9714 70.2264 92.9425 70.2318 92.9009C70.2336 92.8792 70.2553 92.8647 70.2553 92.8448V82.9651C70.2553 82.9235 70.221 82.8946 70.2101 82.8548C70.2011 82.8169 70.2155 82.7771 70.1956 82.7409C70.1848 82.7211 70.1595 82.7193 70.1468 82.703C70.1107 82.6542 70.0673 82.6307 70.0149 82.5999C69.9624 82.5674 69.9191 82.5439 69.8612 82.5348C69.8395 82.533 69.8269 82.5114 69.8052 82.5114C69.7636 82.5114 69.7365 82.5457 69.6967 82.5547C69.6569 82.5656 69.6171 82.5493 69.5792 82.571L67.8672 83.5527L64.445 85.534C64.4251 85.5449 64.4233 85.5702 64.407 85.5828C64.36 85.6208 64.3365 85.6624 64.3076 85.713C64.2768 85.7654 64.2497 85.8088 64.2425 85.8685C64.2407 85.8902 64.219 85.9046 64.219 85.9245V93.8229V95.8043C64.219 95.8458 64.2533 95.8748 64.2642 95.9145C64.275 95.9561 64.2588 95.9977 64.2786 96.0338ZM65.1229 94.0886L68.0913 92.3821L68.8976 92.8467L65.1229 95.0251V94.0886ZM69.3514 92.0639L68.5433 91.5993V84.2089L69.3514 83.7461V92.0639Z" fill="#00BD4C"/>
<path d="M69.5629 75.5809L69.2809 75.4146C69.2646 75.4037 69.2429 75.4146 69.2267 75.4073C69.2086 75.3983 69.2032 75.3766 69.1851 75.3712L68.6518 75.2085C68.621 75.1994 68.5939 75.2211 68.565 75.2175C68.5325 75.2139 68.509 75.1868 68.4746 75.1904L67.8545 75.2537C67.8274 75.2573 67.8166 75.2826 67.7912 75.288C67.7677 75.2952 67.7461 75.2808 67.7226 75.2898L67.0609 75.5718C67.0446 75.5791 67.041 75.6008 67.0247 75.6098C67.0085 75.6188 66.9868 75.6116 66.9723 75.6225L66.3088 76.107C66.2962 76.116 66.298 76.1341 66.2871 76.1449C66.2763 76.154 66.26 76.1503 66.2492 76.1612L65.6291 76.8102C65.6201 76.821 65.6237 76.8355 65.6146 76.8482C65.6056 76.859 65.5893 76.8572 65.5803 76.8699L65.047 77.6581C65.0397 77.6689 65.047 77.6834 65.0397 77.6942C65.0325 77.7051 65.0199 77.7069 65.0144 77.7177L64.6059 78.562C64.6004 78.5746 64.6077 78.5891 64.6041 78.5999C64.6004 78.6126 64.5842 78.6162 64.5806 78.6307L64.3238 79.4984C64.3202 79.5129 64.3311 79.5255 64.3275 79.54C64.3238 79.5545 64.3094 79.5617 64.3076 79.578L64.2208 80.3933C64.2208 80.4023 64.228 80.4096 64.228 80.4186C64.228 80.4276 64.219 80.4331 64.219 80.4421V81.7564C64.219 81.7799 64.2407 81.7944 64.2425 81.8142C64.2497 81.8739 64.2768 81.9173 64.3076 81.9679C64.3383 82.0203 64.3618 82.0637 64.4106 82.0981C64.4269 82.1125 64.4287 82.1378 64.4486 82.1487L64.736 82.3114C64.8065 82.3494 64.8825 82.3692 64.9584 82.3692C65.0379 82.3692 65.1157 82.3475 65.1844 82.3078L66.0358 81.8142C66.0539 81.8034 66.0557 81.7781 66.072 81.7672C66.119 81.7293 66.1443 81.6859 66.1732 81.6353C66.204 81.5828 66.2293 81.5395 66.2365 81.4816C66.2383 81.4599 66.26 81.4454 66.26 81.4256V80.1348L66.2709 80.0408L68.4981 78.7518V79.2815C68.4981 79.3014 68.5162 79.314 68.5198 79.3321C68.527 79.39 68.5541 79.4333 68.5831 79.4858C68.6138 79.5382 68.6337 79.5852 68.6825 79.6214C68.697 79.634 68.697 79.6557 68.715 79.6647L68.9971 79.8383C68.9989 79.8401 69.0007 79.8383 69.0043 79.8401C69.0748 79.8799 69.1525 79.9052 69.2321 79.9052C69.3098 79.9052 69.3857 79.8835 69.4526 79.8473C69.4544 79.8455 69.4562 79.8473 69.4581 79.8455L70.3186 79.3484C70.3385 79.3375 70.3403 79.3122 70.3565 79.2996C70.4035 79.2616 70.427 79.22 70.456 79.1694C70.4867 79.117 70.5138 79.0736 70.5211 79.0139C70.5229 78.9922 70.5446 78.9778 70.5446 78.9579V77.6436C70.5446 77.6328 70.5337 77.6255 70.5337 77.6147C70.5337 77.6038 70.5427 77.5948 70.5409 77.5839L70.4469 76.8644C70.4433 76.8391 70.4198 76.8283 70.4126 76.8066C70.4072 76.7831 70.4216 76.7614 70.4108 76.7379L70.1541 76.1702C70.1414 76.1395 70.1071 76.1323 70.0872 76.1088C70.0691 76.0816 70.0727 76.0473 70.0492 76.0238L69.6406 75.646C69.628 75.6333 69.6063 75.6387 69.5936 75.6279C69.581 75.617 69.5792 75.5881 69.5629 75.5809ZM69.5593 77.0398L69.6406 77.6689V77.7087L69.628 77.593C69.6262 77.5659 69.5991 77.5532 69.5918 77.5279C69.5846 77.5026 69.5991 77.4791 69.5882 77.4538L69.4147 77.0832C69.402 77.0543 69.3695 77.0488 69.3514 77.0253C69.3333 77.0018 69.3369 76.9657 69.3134 76.944L69.0423 76.6891C69.0151 76.6638 68.9772 76.671 68.9482 76.6529C68.9175 76.633 68.9049 76.5969 68.8687 76.586L68.5162 76.4758C68.4854 76.4667 68.4583 76.4866 68.4276 76.4848C68.3933 76.483 68.3661 76.4504 68.3318 76.4595L67.9178 76.5047C67.8979 76.5065 67.8889 76.5264 67.8708 76.5318C67.8509 76.5354 67.8328 76.5209 67.8129 76.5282L67.7244 76.5607L67.7442 76.5463L68.3029 76.3094L68.7602 76.2624L69.1019 76.3691L69.3695 76.6186L69.5593 77.0398ZM66.7029 78.6488L66.7915 78.5204L67.8997 77.875L68.0498 77.9618L66.6415 78.7753L66.7029 78.6488Z" fill="#00BD4C"/>
<path d="M139.715 52.4854C139.73 52.5107 139.753 52.5215 139.77 52.5396C139.788 52.5613 139.804 52.5776 139.824 52.5938C139.905 52.6625 140.001 52.7095 140.104 52.7095C140.182 52.7095 140.26 52.6897 140.33 52.6499L145.468 49.676C145.468 49.676 145.47 49.6706 145.473 49.6688C145.493 49.6579 145.506 49.6326 145.522 49.62C145.544 49.6019 145.56 49.5874 145.575 49.5675C145.594 49.5459 145.618 49.535 145.632 49.5115C145.643 49.4916 145.632 49.4717 145.641 49.45C145.656 49.4121 145.665 49.3832 145.67 49.3416C145.674 49.3199 145.694 49.3054 145.694 49.2855V39.4058C145.694 39.3642 145.659 39.3353 145.649 39.2955C145.64 39.2575 145.654 39.216 145.632 39.1798C145.622 39.1599 145.598 39.1599 145.587 39.1418C145.549 39.0948 145.506 39.0713 145.453 39.0406C145.403 39.0081 145.358 38.9828 145.298 38.9755C145.278 38.9719 145.265 38.952 145.244 38.952C145.202 38.952 145.175 38.9864 145.135 38.9954C145.095 39.0045 145.054 38.99 145.018 39.0117L143.306 40.0006L139.88 41.9783C139.86 41.9892 139.858 42.0145 139.842 42.0271C139.795 42.0633 139.771 42.1067 139.739 42.1591C139.71 42.2097 139.683 42.2531 139.676 42.3128C139.672 42.3345 139.652 42.3489 139.652 42.3688V50.278V52.2558C139.652 52.2974 139.686 52.3263 139.697 52.3661C139.71 52.4076 139.695 52.4492 139.715 52.4854ZM140.558 50.5438L143.533 48.8245L144.338 49.2873L140.558 51.4766V50.5438ZM144.792 48.5045L143.984 48.0399V40.6568L144.792 40.1904V48.5045Z" fill="#00BD4C"/>
<path d="M122.458 56.5194C122.473 56.5447 122.496 56.5555 122.513 56.5736C122.531 56.5953 122.547 56.6116 122.567 56.6278C122.648 56.6947 122.744 56.7435 122.847 56.7435C122.923 56.7435 123.001 56.7236 123.073 56.6839L128.205 53.7208C128.209 53.719 128.209 53.7136 128.213 53.7118C128.231 53.6992 128.243 53.6775 128.26 53.6648C128.281 53.6467 128.298 53.6305 128.314 53.6106C128.332 53.5907 128.355 53.5798 128.37 53.5563C128.381 53.5364 128.37 53.5166 128.377 53.4967C128.393 53.4587 128.402 53.428 128.408 53.3864C128.41 53.3647 128.431 53.3502 128.431 53.3304V43.4434C128.431 43.4018 128.395 43.3729 128.386 43.3331C128.377 43.2933 128.393 43.2536 128.372 43.2174C128.361 43.1975 128.336 43.1975 128.323 43.1794C128.287 43.1324 128.242 43.1071 128.191 43.0764C128.14 43.0457 128.097 43.0222 128.037 43.0131C128.016 43.0113 128.001 42.9896 127.981 42.9896C127.94 42.9896 127.911 43.024 127.873 43.033C127.833 43.0439 127.791 43.0276 127.755 43.0493L126.043 44.0382L122.623 46.0123C122.603 46.0231 122.601 46.0485 122.585 46.0611C122.538 46.0973 122.514 46.1407 122.482 46.1931C122.453 46.2437 122.426 46.2871 122.419 46.3467C122.415 46.3684 122.395 46.3829 122.395 46.4028V54.3084V56.2898C122.395 56.3313 122.429 56.3603 122.44 56.4C122.451 56.4416 122.437 56.4814 122.458 56.5194ZM123.299 54.5723L126.267 52.8603L127.075 53.3304L123.299 55.5088V54.5723ZM127.527 52.544L126.719 52.0757V44.6926L127.527 44.2262V52.544Z" fill="#00BD4C"/>
<path d="M145.005 32.0303L144.716 31.8604C144.699 31.8495 144.68 31.8604 144.663 31.8531C144.645 31.8441 144.64 31.8224 144.622 31.817L144.096 31.6543C144.063 31.6452 144.038 31.6651 144.007 31.6633C143.974 31.6597 143.953 31.6344 143.918 31.6362L143.297 31.6959C143.271 31.6977 143.259 31.7248 143.233 31.732C143.208 31.7374 143.188 31.723 143.163 31.732L142.503 32.014C142.485 32.0213 142.481 32.043 142.465 32.052C142.449 32.061 142.427 32.0538 142.414 32.0647L141.745 32.5491C141.733 32.5582 141.733 32.5763 141.722 32.5871C141.711 32.598 141.693 32.5943 141.684 32.6052L141.062 33.2578C141.053 33.2687 141.058 33.2831 141.048 33.294C141.04 33.3066 141.022 33.3048 141.015 33.3175L140.485 34.1021C140.478 34.1129 140.485 34.1256 140.478 34.1364C140.473 34.1473 140.46 34.1491 140.453 34.1599L140.046 35.0078C140.039 35.0204 140.048 35.0331 140.042 35.0458C140.039 35.0584 140.023 35.062 140.019 35.0747L139.76 35.9334C139.755 35.9497 139.768 35.9623 139.766 35.9768C139.762 35.993 139.744 36.0003 139.744 36.0147L139.656 36.8301C139.656 36.8391 139.665 36.8463 139.663 36.8554C139.663 36.8644 139.654 36.8698 139.654 36.8789V38.1968C139.654 38.2203 139.676 38.2347 139.677 38.2546C139.686 38.3143 139.713 38.3577 139.742 38.4083C139.773 38.4607 139.797 38.5041 139.845 38.5385C139.862 38.5529 139.865 38.5782 139.883 38.5891L140.171 38.7518C140.241 38.7897 140.317 38.8096 140.393 38.8096C140.471 38.8096 140.549 38.7879 140.619 38.75L141.471 38.2601C141.492 38.2492 141.492 38.2239 141.509 38.2112C141.556 38.1751 141.579 38.1317 141.612 38.0793C141.641 38.0287 141.668 37.9853 141.675 37.9256C141.679 37.9039 141.698 37.8895 141.698 37.8696V36.5806L141.711 36.4794L143.931 35.1958V35.7327C143.931 35.7562 143.953 35.7707 143.956 35.7906C143.964 35.8502 143.989 35.8936 144.02 35.9442C144.05 35.9967 144.076 36.0401 144.125 36.0762C144.143 36.0907 144.144 36.1142 144.163 36.125L144.448 36.2859C144.517 36.3239 144.595 36.3456 144.672 36.3456C144.752 36.3456 144.831 36.3239 144.898 36.2841L145.753 35.787C145.771 35.7761 145.773 35.7508 145.79 35.74C145.838 35.702 145.862 35.6586 145.893 35.608C145.923 35.5556 145.949 35.5122 145.956 35.4543C145.959 35.4326 145.979 35.4182 145.979 35.3983V34.0804C145.979 34.0695 145.969 34.0623 145.967 34.0533C145.967 34.0424 145.978 34.0352 145.976 34.0243L145.889 33.3084C145.885 33.2831 145.86 33.2723 145.853 33.2506C145.847 33.2253 145.864 33.2036 145.853 33.1783L145.598 32.6106C145.583 32.5799 145.549 32.5727 145.531 32.5473C145.511 32.5202 145.515 32.4859 145.491 32.4624L145.083 32.0882C145.068 32.0755 145.05 32.0809 145.037 32.0701C145.025 32.0592 145.021 32.0393 145.005 32.0303ZM144.998 33.4856L145.074 34.1039V34.1418L145.061 34.0442C145.057 34.0189 145.032 34.0081 145.025 33.9864C145.018 33.9611 145.034 33.9376 145.021 33.9122L144.848 33.5308C144.833 33.5001 144.801 33.4946 144.781 33.4711C144.763 33.444 144.768 33.4115 144.745 33.3898L144.473 33.1349C144.445 33.1096 144.408 33.115 144.378 33.0987C144.347 33.0806 144.336 33.0445 144.3 33.0336L143.953 32.9234C143.922 32.9143 143.895 32.9342 143.862 32.9324C143.828 32.9288 143.803 32.8981 143.767 32.9053L143.349 32.9505C143.325 32.9523 143.313 32.9776 143.291 32.983C143.266 32.9885 143.246 32.974 143.221 32.983L143.145 33.0174L143.183 32.9866L143.732 32.7552L144.197 32.7082L144.542 32.8203L144.808 33.0644L144.998 33.4856ZM142.145 35.0873L142.23 34.9626L143.335 34.3208L143.483 34.4094L142.082 35.2193L142.145 35.0873Z" fill="#00BD4C"/>
<path d="M70.4275 101.197C70.4112 101.208 70.4112 101.229 70.395 101.24C70.3461 101.278 70.3245 101.323 70.2955 101.376C70.2666 101.428 70.2395 101.472 70.2323 101.53C70.2304 101.549 70.2106 101.562 70.2106 101.58V101.965L70.2087 101.962C70.1997 101.924 70.2142 101.882 70.1943 101.846C70.1834 101.826 70.1599 101.826 70.1473 101.808C70.1111 101.761 70.0677 101.737 70.0153 101.707C69.9629 101.674 69.9195 101.649 69.8598 101.642C69.84 101.638 69.8255 101.618 69.8056 101.618C69.764 101.618 69.7369 101.652 69.6989 101.661C69.6592 101.672 69.6158 101.656 69.5796 101.678L67.8676 102.667L64.4472 104.637C64.4273 104.648 64.4255 104.673 64.4093 104.686C64.3623 104.722 64.3388 104.766 64.3098 104.816C64.2791 104.869 64.252 104.912 64.2447 104.972C64.2429 104.993 64.2212 105.008 64.2212 105.028V105.389C64.2122 105.36 64.2249 105.33 64.2104 105.302C64.1996 105.283 64.176 105.283 64.1634 105.264C64.1254 105.217 64.082 105.192 64.0296 105.161C63.9772 105.131 63.9356 105.105 63.8759 105.098C63.8561 105.095 63.8416 105.075 63.8199 105.075C63.7783 105.075 63.7512 105.109 63.7114 105.118C63.6717 105.129 63.6301 105.113 63.5939 105.134L61.8819 106.123L61.6017 106.286C61.5818 106.297 61.5818 106.322 61.5637 106.335C61.5167 106.371 61.4914 106.414 61.4625 106.467C61.4318 106.517 61.4065 106.561 61.3992 106.62C61.3956 106.642 61.3757 106.656 61.3757 106.676V114.582V116.563C61.3757 116.605 61.4101 116.632 61.4209 116.672C61.43 116.712 61.4155 116.755 61.4372 116.791C61.4517 116.816 61.4752 116.827 61.4932 116.845C61.5095 116.867 61.5258 116.882 61.5457 116.898C61.627 116.965 61.7228 117.013 61.8277 117.013C61.9054 117.013 61.9832 116.994 62.0537 116.952L64.0423 115.797L64.0459 115.795L64.0477 115.793L64.0495 115.791C64.0712 115.777 64.0838 115.753 64.1019 115.739C64.1236 115.721 64.1381 115.706 64.1544 115.687C64.1724 115.665 64.1977 115.654 64.2122 115.631C64.2231 115.611 64.2122 115.589 64.2194 115.569C64.2357 115.531 64.2429 115.5 64.2484 115.459C64.2502 115.439 64.2719 115.424 64.2719 115.405V115.054C64.2809 115.083 64.2682 115.113 64.2827 115.141C64.2972 115.166 64.3207 115.177 64.3388 115.195C64.3568 115.217 64.3731 115.233 64.393 115.249C64.4743 115.318 64.5702 115.365 64.6732 115.365C64.7491 115.365 64.8287 115.345 64.8992 115.305L70.0316 112.335L70.0352 112.328C70.0551 112.317 70.0677 112.293 70.0858 112.279C70.1075 112.261 70.1238 112.244 70.14 112.225C70.1563 112.205 70.1816 112.192 70.1961 112.169C70.2069 112.149 70.1961 112.129 70.2033 112.111C70.2178 112.073 70.2268 112.042 70.2323 112C70.2341 111.979 70.2557 111.964 70.2557 111.944V111.559L70.2576 111.563C70.2666 111.601 70.2521 111.642 70.272 111.679C70.2865 111.704 70.31 111.715 70.3281 111.733C70.3461 111.755 70.3624 111.771 70.3823 111.787C70.4637 111.856 70.5595 111.903 70.6625 111.903C70.7402 111.903 70.818 111.883 70.8885 111.843L72.8843 110.688C72.8843 110.688 72.8861 110.683 72.8897 110.681C72.9096 110.67 72.9223 110.645 72.9404 110.632C72.9621 110.614 72.9765 110.599 72.9928 110.579C73.0109 110.558 73.0362 110.547 73.0506 110.523C73.0615 110.504 73.0506 110.484 73.0579 110.462C73.0741 110.424 73.0814 110.395 73.0868 110.353C73.0886 110.332 73.1103 110.317 73.1103 110.297V100.414C73.1103 100.373 73.076 100.345 73.0651 100.306C73.0561 100.266 73.0705 100.224 73.0506 100.188C73.0398 100.168 73.0145 100.166 73.0018 100.15C72.9657 100.103 72.9223 100.078 72.8699 100.047C72.8174 100.016 72.774 99.9929 72.7162 99.9838C72.6945 99.9802 72.6818 99.9603 72.6602 99.9603C72.6186 99.9603 72.5915 99.9947 72.5517 100.004C72.5119 100.013 72.4703 99.9983 72.4342 100.02L70.7204 101.016L70.7167 101.022L70.7113 101.023L70.4275 101.197ZM69.3518 111.171L68.5437 110.708V103.321L69.3518 102.855V111.171ZM63.3643 114.629L62.5562 114.164V106.781L63.3643 106.315V114.629ZM62.2742 115.047L62.9142 115.414L62.2742 115.786V115.047ZM65.1233 113.208L68.0936 111.492L68.8981 111.953L65.1233 114.137V113.208ZM71.1145 109.939L71.7526 110.305L71.1145 110.675V109.939ZM72.2064 109.524L71.3983 109.059V101.669L72.2064 101.204V109.524Z" fill="#00BD4C"/>
<path d="M13.2527 94.8556C13.222 94.8031 13.1985 94.7579 13.1515 94.7236C13.1352 94.7091 13.1334 94.6856 13.1135 94.6748L9.68769 92.697L7.97388 91.7118C7.93591 91.6901 7.89614 91.7063 7.85637 91.6955C7.81841 91.6846 7.79129 91.6521 7.74971 91.6521C7.72801 91.6521 7.71536 91.672 7.69547 91.6756C7.63401 91.6828 7.59062 91.7099 7.53819 91.7407C7.48757 91.7714 7.44419 91.7931 7.40803 91.8419C7.39537 91.8582 7.37007 91.86 7.35922 91.8799C7.33752 91.9178 7.3538 91.9576 7.34476 91.9974C7.33391 92.0354 7.29956 92.0625 7.29956 92.1059V101.986C7.29956 102.007 7.31945 102.022 7.32306 102.042C7.32668 102.081 7.33572 102.112 7.35199 102.152C7.35922 102.17 7.35018 102.19 7.35922 102.21C7.37368 102.235 7.39718 102.246 7.41526 102.266C7.43334 102.286 7.4478 102.304 7.4695 102.32C7.48757 102.336 7.50023 102.358 7.52012 102.369L7.52373 102.376L12.6616 105.346C12.7339 105.386 12.8116 105.406 12.8875 105.406C12.9924 105.406 13.0864 105.359 13.1677 105.29C13.1894 105.272 13.2057 105.256 13.222 105.236C13.2401 105.216 13.2636 105.205 13.278 105.182C13.2997 105.144 13.2834 105.104 13.2925 105.066C13.3033 105.028 13.3377 104.999 13.3377 104.956V102.982V95.0689C13.3377 95.0472 13.3178 95.0327 13.3142 95.0128C13.3088 94.9478 13.2816 94.9062 13.2527 94.8556ZM9.01157 100.74L8.20166 101.203V92.8832L9.01157 93.3496V100.74ZM9.46171 101.523L12.4374 103.238V104.168L8.65723 101.984L9.46171 101.523Z" fill="#00BD4C"/>
<path d="M24.5201 82.2516C24.4912 82.201 24.4677 82.1558 24.4207 82.1215C24.4044 82.107 24.4026 82.0835 24.3827 82.0727L20.9569 80.0985L19.2449 79.1132C19.2069 79.0916 19.1671 79.1078 19.1274 79.097C19.0894 79.0861 19.0623 79.0536 19.0207 79.0536C18.999 79.0536 18.9864 79.0735 18.9665 79.0771C18.905 79.0843 18.8616 79.1114 18.8074 79.1422C18.7568 79.1729 18.7134 79.1946 18.679 79.2416C18.6664 79.2597 18.6411 79.2615 18.6302 79.2796C18.6085 79.3175 18.6248 79.3573 18.6158 79.3971C18.6049 79.435 18.5706 79.4622 18.5706 79.5055V89.3853C18.5706 89.407 18.5904 89.4214 18.5941 89.4413C18.5995 89.4811 18.6067 89.5118 18.623 89.5516C18.6302 89.5715 18.6212 89.5914 18.6302 89.6095C18.6447 89.6348 18.6682 89.6456 18.6863 89.6655C18.7043 89.6854 18.7188 89.7035 18.7405 89.7197C18.7586 89.7342 18.7712 89.7577 18.7911 89.7685L18.7947 89.7758L23.9326 92.7388C24.0049 92.7786 24.0826 92.7985 24.1585 92.7985C24.2634 92.7985 24.3592 92.7496 24.4406 92.6827C24.4622 92.6647 24.4767 92.6502 24.493 92.6303C24.5111 92.6086 24.5364 92.5978 24.5508 92.5743C24.5725 92.5363 24.5563 92.4965 24.5671 92.4568C24.5779 92.4188 24.6105 92.3917 24.6105 92.3483V90.3814V82.4649C24.6105 82.4433 24.5906 82.4288 24.587 82.4089C24.5779 82.3474 24.5508 82.3041 24.5201 82.2516ZM20.2789 88.1415L19.4709 88.6043V80.2865L20.2789 80.7511V88.1415ZM20.7291 88.9243L23.7048 90.6399V91.5637L19.9264 89.3835L20.7291 88.9243Z" fill="#00BD4C"/>
<path d="M35.7915 107.878C35.7608 107.826 35.7373 107.781 35.6903 107.746C35.674 107.732 35.6722 107.708 35.6523 107.697L32.2247 105.716L30.5127 104.731C30.4747 104.709 30.435 104.725 30.3952 104.715C30.3572 104.704 30.3301 104.671 30.2885 104.671C30.2668 104.671 30.2542 104.691 30.2343 104.695C30.1728 104.702 30.1294 104.729 30.0752 104.76C30.0246 104.79 29.9812 104.812 29.9469 104.859C29.9342 104.877 29.9089 104.879 29.898 104.897C29.8763 104.935 29.8926 104.975 29.8836 105.015C29.8727 105.053 29.8384 105.08 29.8384 105.123V115.003C29.8384 115.025 29.8583 115.039 29.8619 115.059C29.8673 115.099 29.8763 115.131 29.8926 115.169C29.8998 115.189 29.8908 115.209 29.8998 115.229C29.9125 115.254 29.9378 115.265 29.9559 115.283C29.974 115.305 29.9902 115.321 30.0101 115.337C30.0282 115.352 30.039 115.375 30.0589 115.384C30.0589 115.384 30.0607 115.392 30.0644 115.393L35.204 118.356C35.2763 118.396 35.354 118.416 35.43 118.416C35.5348 118.416 35.6306 118.367 35.712 118.3C35.7337 118.282 35.7481 118.268 35.7644 118.248C35.7825 118.226 35.8078 118.215 35.8223 118.192C35.844 118.154 35.8277 118.114 35.8385 118.074C35.8494 118.036 35.8819 118.009 35.8819 117.966V115.992V108.09C35.8819 108.068 35.862 108.054 35.8584 108.034C35.8476 107.972 35.8205 107.929 35.7915 107.878ZM31.5468 113.752L30.7387 114.218V105.904L31.5468 106.369V113.752ZM31.9987 114.535L34.9744 116.25V117.181L31.1924 115.001L31.9987 114.535Z" fill="#00BD4C"/>
<path d="M35.7916 88.7673C35.7609 88.7149 35.7374 88.6697 35.6904 88.6354C35.6741 88.6209 35.6723 88.5974 35.6524 88.5866L32.2248 86.6052L30.5128 85.6163C30.4748 85.5946 30.4351 85.6109 30.3953 85.6018C30.3573 85.5892 30.3284 85.5566 30.2868 85.5566C30.2633 85.5566 30.2507 85.5783 30.229 85.5819C30.1711 85.5892 30.1313 85.6163 30.0789 85.6434C30.0247 85.6741 29.9795 85.6976 29.9433 85.7465C29.9307 85.7645 29.9054 85.7645 29.8963 85.7844C29.8746 85.8224 29.8909 85.8622 29.8819 85.9001C29.871 85.9381 29.8367 85.967 29.8367 86.0104V95.8901C29.8367 95.9118 29.8566 95.9263 29.8602 95.9462C29.8656 95.986 29.8728 96.0167 29.8891 96.0547C29.8963 96.0763 29.8873 96.0962 29.8963 96.1161C29.9108 96.1414 29.9343 96.1523 29.9542 96.1722C29.9704 96.1939 29.9867 96.2083 30.0066 96.2246C30.0247 96.2391 30.0373 96.2626 30.0572 96.2734C30.0572 96.2734 30.059 96.2788 30.0626 96.2806L35.2023 99.2545C35.2728 99.2943 35.3523 99.3142 35.4283 99.3142C35.5331 99.3142 35.6271 99.2671 35.7085 99.1984C35.7302 99.1804 35.7464 99.1641 35.7627 99.1442C35.7808 99.1243 35.8043 99.1135 35.8187 99.09C35.8404 99.052 35.8242 99.0123 35.8332 98.9743C35.8441 98.9363 35.8784 98.9074 35.8784 98.864V96.8862V88.9807C35.8784 88.959 35.8585 88.9445 35.8549 88.9246C35.8477 88.8613 35.8206 88.8198 35.7916 88.7673ZM31.5469 94.6427L30.7388 95.1074V86.7932L31.5469 87.2596V94.6427ZM31.9988 95.4255L34.9745 97.1448V98.0776L31.1925 95.8883L31.9988 95.4255Z" fill="#00BD4C"/>
<path d="M13.2527 75.7492C13.222 75.6968 13.1985 75.6516 13.1515 75.6173C13.1352 75.6028 13.1334 75.5793 13.1135 75.5685L9.68769 73.5871L7.97388 72.6054C7.93591 72.5837 7.89614 72.6 7.85818 72.5892C7.82021 72.5783 7.79129 72.5458 7.74971 72.5458C7.72801 72.5458 7.71355 72.5675 7.69367 72.5693C7.63401 72.5783 7.59062 72.6036 7.53819 72.6344C7.48757 72.6651 7.44419 72.6886 7.40803 72.7374C7.39537 72.7537 7.37007 72.7555 7.35922 72.7754C7.33752 72.8133 7.3538 72.8513 7.34476 72.8893C7.33391 72.9272 7.29956 72.9562 7.29956 72.9995V82.8865C7.29956 82.9082 7.31945 82.9227 7.32306 82.9426C7.32849 82.9823 7.33572 83.0149 7.3538 83.0528C7.36103 83.0745 7.35018 83.0944 7.36103 83.1143C7.37549 83.1396 7.39899 83.1505 7.41707 83.1685C7.43334 83.1902 7.44961 83.2047 7.4695 83.221C7.48757 83.2354 7.50023 83.2589 7.51831 83.268C7.51831 83.268 7.52011 83.2752 7.52373 83.277L12.6616 86.24C12.7339 86.2798 12.8116 86.2997 12.8875 86.2997C12.9924 86.2997 13.0882 86.2509 13.1696 86.184C13.1913 86.1659 13.2057 86.1514 13.222 86.1316C13.2401 86.1099 13.2654 86.099 13.2798 86.0755C13.3015 86.0375 13.2853 85.9978 13.2961 85.958C13.307 85.92 13.3395 85.8929 13.3395 85.8495V83.8682V75.9626C13.3395 75.9409 13.3196 75.9264 13.316 75.9065C13.3088 75.8432 13.2816 75.8017 13.2527 75.7492ZM9.01157 81.6283L8.20166 82.1001V73.7769L9.01157 74.2397V81.6283ZM9.46352 82.4111L12.4374 84.1267V85.0649L8.65181 82.8829L9.46352 82.4111Z" fill="#00BD4C"/>
<path d="M145.876 57.6363C145.858 57.6471 145.858 57.6724 145.84 57.6833C145.793 57.7212 145.769 57.7646 145.739 57.8171C145.708 57.8677 145.682 57.9111 145.675 57.9707C145.672 57.9924 145.652 58.0051 145.652 58.025V58.4064C145.652 58.4046 145.652 58.4046 145.652 58.4028C145.641 58.3648 145.655 58.3232 145.634 58.2871C145.623 58.2672 145.599 58.2672 145.588 58.2491C145.55 58.2021 145.507 58.1768 145.455 58.1461C145.402 58.1153 145.359 58.09 145.299 58.0828C145.277 58.0792 145.265 58.0593 145.245 58.0593C145.205 58.0593 145.176 58.0936 145.138 58.1027C145.099 58.1135 145.055 58.0973 145.017 58.119L143.305 59.1115L139.881 61.0928C139.861 61.1037 139.859 61.129 139.843 61.1416C139.796 61.1778 139.773 61.2212 139.74 61.2736C139.711 61.3242 139.684 61.3676 139.677 61.4273C139.673 61.449 139.653 61.4634 139.653 61.4833V61.825C139.644 61.7979 139.659 61.7708 139.643 61.7436C139.63 61.7238 139.606 61.7219 139.594 61.7057C139.558 61.6587 139.514 61.6352 139.464 61.6044C139.411 61.5719 139.366 61.5466 139.306 61.5394C139.285 61.5357 139.272 61.5159 139.252 61.5159C139.212 61.5159 139.183 61.5502 139.144 61.5592C139.104 61.5683 139.062 61.5538 139.028 61.5755L137.309 62.5644C137.309 62.5644 137.307 62.5662 137.305 62.5662L137.023 62.7325C137.005 62.7434 137.005 62.7687 136.987 62.7795C136.94 62.8175 136.916 62.8609 136.886 62.9133C136.855 62.9639 136.83 63.0073 136.822 63.067C136.819 63.0887 136.799 63.1013 136.799 63.1212V71.0268V73.0082C136.799 73.0498 136.835 73.0787 136.844 73.1185C136.853 73.1582 136.837 73.198 136.858 73.2342C136.873 73.2595 136.896 73.2703 136.915 73.2884C136.933 73.3101 136.947 73.3263 136.967 73.3426C137.05 73.4095 137.144 73.4583 137.249 73.4583C137.327 73.4583 137.404 73.4384 137.475 73.3987L139.474 72.2435C139.478 72.2417 139.478 72.2362 139.48 72.2344C139.502 72.2236 139.512 72.2001 139.529 72.1874C139.55 72.1693 139.567 72.1531 139.583 72.1332C139.601 72.1133 139.624 72.1025 139.637 72.079C139.65 72.0591 139.637 72.0392 139.646 72.0193C139.662 71.9813 139.671 71.9506 139.677 71.909C139.68 71.8873 139.7 71.8729 139.7 71.853V71.4986C139.709 71.5276 139.695 71.5583 139.713 71.5854C139.726 71.6107 139.751 71.6216 139.767 71.6397C139.785 71.6614 139.802 71.6776 139.821 71.6939C139.903 71.7626 139.999 71.8096 140.102 71.8096C140.178 71.8096 140.255 71.7897 140.328 71.7499L145.466 68.7833C145.469 68.7815 145.469 68.7761 145.471 68.7743C145.493 68.7634 145.503 68.7399 145.52 68.7273C145.541 68.7092 145.558 68.6929 145.574 68.673C145.592 68.6531 145.616 68.6423 145.628 68.6188C145.641 68.5989 145.628 68.579 145.637 68.5591C145.654 68.5212 145.663 68.4904 145.668 68.4489C145.672 68.4272 145.691 68.4127 145.691 68.3928V68.0041C145.691 68.0059 145.693 68.0059 145.693 68.0059C145.702 68.0457 145.686 68.0891 145.708 68.1253C145.722 68.1506 145.746 68.1614 145.764 68.1795C145.782 68.2012 145.796 68.2156 145.816 68.2319C145.899 68.2988 145.993 68.3476 146.098 68.3476C146.176 68.3476 146.254 68.3277 146.324 68.2861L148.315 67.131C148.316 67.131 148.316 67.1291 148.32 67.1291C148.322 67.1291 148.322 67.1255 148.324 67.1255C148.345 67.1111 148.358 67.0876 148.376 67.0731C148.398 67.055 148.412 67.0406 148.429 67.0207C148.445 67.0008 148.47 66.9881 148.485 66.9646C148.495 66.9447 148.485 66.923 148.492 66.9032C148.51 66.8652 148.517 66.8345 148.523 66.7929C148.524 66.773 148.546 66.7585 148.546 66.7386V56.8679C148.546 56.8264 148.51 56.7974 148.501 56.7577C148.492 56.7179 148.508 56.6781 148.486 56.642C148.476 56.6221 148.45 56.6221 148.438 56.604C148.401 56.557 148.356 56.5317 148.304 56.501C148.253 56.4702 148.21 56.4449 148.152 56.4377C148.13 56.4341 148.116 56.4142 148.096 56.4142C148.054 56.4142 148.027 56.4485 147.989 56.4576C147.948 56.4684 147.906 56.4522 147.87 56.4738L146.158 57.4663C146.156 57.4663 146.156 57.4681 146.156 57.4681C146.154 57.4681 146.154 57.4681 146.154 57.4681L145.876 57.6363ZM144.793 67.6154L143.985 67.149V59.7659L144.793 59.2977V67.6154ZM138.802 71.0756L137.988 70.6056V63.2224L138.802 62.7542V71.0756ZM137.705 71.4878L138.346 71.8602L137.705 72.2308V71.4878ZM140.559 69.6492L143.533 67.9336L144.339 68.4L140.559 70.5821V69.6492ZM146.557 66.3825L147.197 66.7495L146.557 67.1219V66.3825ZM147.648 65.9649L146.839 65.5003V58.1208L147.648 57.6525V65.9649Z" fill="#00BD4C"/>
<path d="M0.451711 115.272L53.8005 146.079C53.9397 146.16 54.097 146.2 54.2525 146.2C54.4079 146.2 54.5652 146.16 54.7044 146.079L81.9302 130.363L86.6161 133.066C86.7571 133.146 86.9126 133.186 87.068 133.186C87.2235 133.186 87.3808 133.146 87.52 133.064L101.272 125.126C101.55 124.965 101.724 124.667 101.724 124.343C101.724 124.02 101.55 123.722 101.272 123.561L100.484 123.103C100.545 122.98 100.581 122.839 100.581 122.697C100.583 122.371 100.41 122.073 100.131 121.91L98.7719 121.124C98.8351 121.001 98.8695 120.862 98.8695 120.719C98.8713 120.395 98.6977 120.095 98.4175 119.934L97.0562 119.146C97.1195 119.023 97.1557 118.884 97.1557 118.739C97.1557 118.416 96.9839 118.115 96.7037 117.955L82.3641 109.673L93.4044 103.306L95.2303 104.36C95.3695 104.439 95.525 104.479 95.6823 104.479C95.8378 104.479 95.9932 104.439 96.1324 104.36L96.8465 103.949L97.5624 103.535C97.8445 103.373 98.0162 103.074 98.0162 102.751V100.636L109.091 94.2396L110.924 95.2972C111.065 95.3767 111.221 95.4165 111.376 95.4165C111.531 95.4165 111.687 95.3767 111.824 95.2972L112.804 94.7368L132.891 106.332C133.03 106.413 133.186 106.453 133.343 106.453C133.5 106.453 133.656 106.413 133.795 106.332L147.552 98.394C147.831 98.2331 148.004 97.9348 148.004 97.6112C148.004 97.2876 147.831 96.9893 147.552 96.8284L146.766 96.3728C146.827 96.2517 146.86 96.1125 146.862 95.9715C146.864 95.6461 146.69 95.3478 146.412 95.1851L144.633 94.1546L169.808 79.6107C170.087 79.4498 170.26 79.1515 170.26 78.8279V75.5341C170.26 75.2105 170.087 74.9122 169.808 74.7513L154.85 66.1208V53.325L157.826 51.6076C158.105 51.4467 158.278 51.1484 158.278 50.8248V23.7834C158.278 23.4598 158.105 23.1615 157.826 22.9988L151.64 19.4338L143.438 11.5625V9.31C143.438 8.9864 143.264 8.68811 142.986 8.52722L131.289 1.77681C131.15 1.69546 130.994 1.65569 130.837 1.65569C130.68 1.65569 130.524 1.69546 130.383 1.77681L128.959 2.60299C128.68 2.76569 128.509 3.06217 128.509 3.38577V3.82146L122.612 2.67168L116.451 -0.880684C116.31 -0.960228 116.154 -1 115.999 -1C115.843 -1 115.688 -0.960228 115.548 -0.880684L114.12 -0.0599341C113.84 0.100962 113.667 0.40106 113.667 0.72466V4.26257L113.641 4.25714C113.58 4.24449 113.518 4.23726 113.455 4.23726C113.298 4.23726 113.14 4.27703 113.003 4.35838L102.872 10.2013L100.916 9.07679V5.60578C100.916 5.28398 100.746 4.9875 100.469 4.8248L99.3377 4.16133C99.1967 4.07817 99.0376 4.0384 98.8803 4.0384C98.7249 4.0384 98.5676 4.07817 98.4302 4.15771L97.2678 4.82661L95.6895 3.79253V2.30108C95.6895 1.97748 95.516 1.67738 95.2358 1.51649L94.0968 0.862055C93.9576 0.782511 93.8022 0.742739 93.6467 0.742739C93.4894 0.742739 93.3339 0.782512 93.1947 0.863863L87.9683 3.88292C87.6881 4.04382 87.5164 4.34211 87.5164 4.66571V6.40664L84.2261 12.3634L82.7365 13.2239C82.4563 13.3848 82.2845 13.6831 82.2845 14.0067V22.0949L79.5457 23.6768L76.7363 22.0497C76.5953 21.9684 76.4398 21.9286 76.2844 21.9286C76.1289 21.9286 75.9734 21.9684 75.8324 22.0479L74.4024 22.8705C74.1222 23.0332 73.9505 23.3315 73.9505 23.6551V32.8388L57.9965 42.046L51.3346 45.8949L48.6573 45.3742L42.4962 41.8164C42.357 41.7351 42.1997 41.6953 42.0442 41.6953C41.8888 41.6953 41.7315 41.7351 41.5905 41.8164L40.1659 42.6426C39.8875 42.8053 39.7158 43.1018 39.7158 43.4254V46.9796L39.6525 46.9615C39.5947 46.9488 39.535 46.9434 39.4771 46.9434C39.3199 46.9434 39.1644 46.9832 39.0252 47.0645L27.4389 53.7553L25.4882 52.6308V49.1598C25.4882 48.8362 25.3165 48.5379 25.0363 48.377L23.8937 47.7172C23.7545 47.6358 23.5972 47.596 23.4418 47.596C23.2863 47.596 23.129 47.6358 22.9898 47.7172L21.8364 48.3842L20.2564 47.3484V45.8551C20.2564 45.5315 20.0828 45.2332 19.8044 45.0705L18.6637 44.4143C18.5245 44.3347 18.3672 44.295 18.2117 44.295C18.0563 44.295 17.9008 44.3347 17.7598 44.4161L12.528 47.4351C12.2477 47.596 12.076 47.8943 12.076 48.2179V49.9625L8.793 55.912L7.29793 56.7761C7.01772 56.937 6.84597 57.2353 6.84597 57.5589V65.6471L5.59496 66.3702L2.78561 64.7486C2.6446 64.6691 2.48913 64.6293 2.33365 64.6293C2.17818 64.6293 2.02271 64.6691 1.8817 64.7486L0.451711 65.5712C0.171499 65.7339 -0.000244141 66.0322 -0.000244141 66.3558V114.493C-0.000244141 114.813 0.171499 115.111 0.451711 115.272ZM2.33184 66.0521L5.36898 67.8038L7.71373 69.1561L7.18946 69.4562L1.80758 66.3522L2.33184 66.0521ZM18.2117 45.7213L18.4468 45.8551L14.1206 48.3517L13.8856 48.2179L18.2117 45.7213ZM18.9204 47.8799C18.9258 47.9395 18.9566 47.9829 18.9837 48.0353C19.0126 48.0878 19.0325 48.1366 19.0777 48.1727C19.0903 48.1854 19.0903 48.2053 19.1048 48.2125L21.5562 49.8215L22.621 50.5265C22.6246 50.5301 22.6319 50.5283 22.6355 50.5319C22.7078 50.5735 22.7855 50.6006 22.8687 50.6006C22.9446 50.6006 23.0187 50.5789 23.0856 50.5428C23.0892 50.541 23.0911 50.5428 23.0947 50.541L24.1287 49.9444V52.6778L16.7528 52.2891C16.7402 52.2891 16.7329 52.3 16.7203 52.3018C16.695 52.3018 16.6751 52.3054 16.6498 52.3108C16.5992 52.3199 16.5666 52.3488 16.5214 52.3741C16.4853 52.3958 16.4491 52.4048 16.4184 52.4319C16.4075 52.4428 16.3895 52.441 16.3786 52.4536L9.33896 60.9631V58.4845L10.8214 57.6186L10.8232 57.6168C10.8232 57.615 10.825 57.615 10.825 57.615V57.6132C10.8413 57.6041 10.8503 57.5842 10.8648 57.5734C10.91 57.5372 10.957 57.5047 10.9877 57.4523C10.9877 57.4505 10.9877 57.4487 10.9877 57.4487C10.9877 57.4468 10.9895 57.4468 10.9895 57.445L14.5075 51.0761C14.5274 51.0399 14.5111 51.0002 14.5202 50.964C14.5292 50.926 14.5636 50.8989 14.5636 50.8573V49.1381L18.8897 46.6415V47.8383C18.9005 47.8545 18.9186 47.8654 18.9204 47.8799ZM23.4418 49.0224L23.6786 49.1598L22.8868 49.6172L22.6644 49.4707L23.4418 49.0224ZM27.1297 55.1437L30.9099 60.4008L18.5932 53.2907L24.4541 53.5998L27.1297 55.1437ZM11.8464 63.3946L9.58121 62.0929L16.836 53.3232L31.0527 61.5289L11.8464 63.3946ZM13.6705 49.1363V50.0727L13.4319 49.9353V48.9989L13.6705 49.1363ZM13.5132 51.0255L10.4309 56.6044L10.0729 56.3983L13.1535 50.8176L13.5132 51.0255ZM9.4637 57.0907L9.70233 57.2281L8.89062 57.7018L8.64837 57.5607L9.4637 57.0907ZM8.44047 58.4845V62.2177C8.44047 62.2267 8.4477 62.2303 8.44951 62.2394C8.44951 62.2611 8.45674 62.2755 8.46036 62.2954C8.4694 62.346 8.50013 62.3822 8.52725 62.4274C8.55075 62.4672 8.55979 62.5142 8.59414 62.5449C8.59956 62.5503 8.59775 62.5594 8.60498 62.5648C8.61583 62.5756 8.6321 62.5702 8.64476 62.5792C8.6556 62.5883 8.6556 62.6027 8.66826 62.61L10.8431 63.8592L8.20365 65.3814V58.3435L8.44047 58.4845ZM7.97586 66.5565L11.888 64.3003L32.546 62.2936C32.5604 62.2918 32.5676 62.2773 32.5821 62.2737C32.64 62.2629 32.6942 62.2484 32.743 62.2177C32.7502 62.2141 32.7575 62.2159 32.7647 62.2105C32.7774 62.2014 32.7774 62.1815 32.7882 62.1725C32.7954 62.1671 32.8009 62.1598 32.8063 62.1544C32.8244 62.1345 32.8424 62.1237 32.8569 62.1038C32.8659 62.0893 32.8822 62.0839 32.8912 62.0694C32.9057 62.0423 32.8931 62.0152 32.9021 61.9881C32.9184 61.9429 32.931 61.9049 32.9328 61.8579C32.9328 61.8362 32.9527 61.82 32.9509 61.8001C32.9491 61.7856 32.9346 61.7784 32.9328 61.7639C32.9256 61.726 32.9039 61.697 32.8876 61.6591C32.8768 61.6338 32.8876 61.6048 32.8696 61.5795L28.0969 54.9394L39.5567 48.3228L40.5311 48.5144L60.0248 52.309L25.302 72.3577L17.3892 67.793C17.3693 67.7822 17.3476 67.793 17.3277 67.784C17.2735 67.7605 17.2229 67.7623 17.1632 67.7623C17.1035 67.7623 17.0529 67.7605 16.9969 67.7858C16.9788 67.793 16.9571 67.7822 16.939 67.793L15.5072 68.6156C15.4874 68.6264 15.4855 68.6517 15.4693 68.6644C15.4367 68.6897 15.415 68.7096 15.3897 68.7439C15.3771 68.7602 15.3518 68.762 15.3427 68.7819C15.3337 68.8018 15.3427 68.8217 15.3355 68.8415C15.3192 68.8795 15.312 68.9102 15.3066 68.9518C15.303 68.9735 15.2831 68.988 15.2831 69.0079V69.9967L8.78757 68.7295L6.50068 67.4116L7.97586 66.5565ZM48.1782 46.8404L48.4168 46.7012L51.4069 47.2833L55.0045 47.9793V48.1655L48.1782 46.8404ZM42.0442 43.1162L47.4316 46.2275L46.9037 46.5312L41.52 43.4182L42.0442 43.1162ZM76.2844 23.3495L79.3215 25.1085L81.6645 26.4572L81.1402 26.7609L75.7601 23.6496L76.2844 23.3495ZM93.6485 2.1673L93.8835 2.30108L89.561 4.79587L89.3278 4.66209L93.6485 2.1673ZM94.3554 4.32765C94.3626 4.38731 94.3933 4.43069 94.4204 4.48312C94.4476 4.53555 94.4674 4.58436 94.5144 4.62052C94.5289 4.63317 94.5271 4.65305 94.5434 4.66029L96.993 6.26563L98.065 6.9743C98.0704 6.97791 98.0759 6.9761 98.0813 6.97972C98.1518 7.0213 98.2313 7.04842 98.3145 7.04842C98.3922 7.04842 98.4663 7.02672 98.5332 6.98876C98.5368 6.98695 98.5387 6.98876 98.5405 6.98695L99.5637 6.39218V9.1256L92.1986 8.73692C92.186 8.73692 92.1769 8.74777 92.1643 8.74958C92.139 8.74958 92.1209 8.75319 92.0956 8.75862C92.0468 8.76766 92.0106 8.79658 91.969 8.82189C91.9311 8.84358 91.8949 8.85082 91.8624 8.87974C91.8515 8.8924 91.8334 8.88878 91.8244 8.90143L84.7848 17.4108V14.9305L86.2654 14.0718C86.269 14.07 86.269 14.0682 86.2708 14.0664C86.2979 14.0501 86.3142 14.0212 86.3359 13.9977C86.3702 13.9688 86.4064 13.9471 86.4317 13.9055C86.4317 13.9055 86.4317 13.9037 86.4317 13.9019C86.4317 13.9001 86.4353 13.9001 86.4353 13.8983L89.9587 7.51845C89.9804 7.4823 89.9623 7.44252 89.9714 7.40637C89.9822 7.3684 90.0148 7.34128 90.0148 7.2997V5.58047L94.3373 3.08748V4.28426C94.3373 4.30053 94.3554 4.31138 94.3554 4.32765ZM98.8821 5.46477L99.119 5.60397L98.3289 6.06316L98.103 5.91491L98.8821 5.46477ZM102.566 11.5879L106.347 16.8432L94.0336 9.73665L99.8837 10.0458L102.566 11.5879ZM87.2832 19.8424L85.0234 18.5389L92.2782 9.76919L106.491 17.9713L87.2832 19.8424ZM89.1109 5.57866V6.51511L88.8722 6.37772V5.44307L89.1109 5.57866ZM88.9518 7.46783L85.8658 13.0576L85.5061 12.8497L88.5938 7.25993L88.9518 7.46783ZM84.8968 13.5403L85.1355 13.6777L84.331 14.1441L84.0924 14.0049L84.8968 13.5403ZM83.8808 14.9269V18.6637C83.8808 18.6727 83.8881 18.6763 83.8899 18.6854C83.8899 18.7071 83.8971 18.7215 83.9007 18.7414C83.9098 18.7938 83.9405 18.83 83.9694 18.8752C83.9929 18.915 84.0002 18.9601 84.0345 18.9909C84.0399 18.9963 84.0381 19.0053 84.0454 19.0108C84.0562 19.0198 84.0725 19.0162 84.0833 19.0252C84.0942 19.0325 84.0942 19.0487 84.1068 19.056L86.2762 20.3052L83.6422 21.8274V14.7859L83.8808 14.9269ZM83.4162 23.0042L87.3229 20.7481L107.983 18.7378C107.999 18.736 108.006 18.7215 108.021 18.7179C108.077 18.7071 108.133 18.6926 108.182 18.6619C108.189 18.6582 108.198 18.66 108.205 18.6546C108.218 18.6438 108.216 18.6257 108.229 18.6167C108.236 18.6112 108.241 18.604 108.248 18.5986C108.267 18.5787 108.285 18.5679 108.297 18.548C108.308 18.5335 108.324 18.5281 108.333 18.5136C108.348 18.4883 108.333 18.4594 108.344 18.4323C108.361 18.3871 108.373 18.3491 108.375 18.3021C108.377 18.2804 108.395 18.2641 108.393 18.2443C108.391 18.2298 108.377 18.2226 108.373 18.2081C108.366 18.1701 108.344 18.1412 108.33 18.105C108.317 18.0779 108.328 18.049 108.31 18.0237L103.537 11.389L113.536 5.62024L114.48 5.81729C114.485 5.81729 114.489 5.81729 114.494 5.8191L133.988 9.60648L99.2527 29.6624L91.3453 25.0977C91.3254 25.0869 91.3037 25.0977 91.2839 25.0905C91.2278 25.0652 91.1772 25.0688 91.1157 25.0688C91.0579 25.0688 91.0109 25.067 90.9585 25.0887C90.9368 25.0977 90.9133 25.0869 90.8952 25.0977L89.4688 25.9166C89.4507 25.9275 89.4489 25.9528 89.4309 25.9655C89.3965 25.9908 89.3766 26.0125 89.3513 26.045C89.3368 26.0631 89.3133 26.0631 89.3025 26.083C89.2916 26.1028 89.3025 26.1227 89.2953 26.1426C89.279 26.1806 89.27 26.2113 89.2663 26.2529C89.2627 26.2746 89.241 26.2891 89.241 26.3089V27.2978L82.7329 26.0287L80.4532 24.7162L83.4162 23.0042ZM130.832 3.08206L141.624 9.31L141.107 9.60648L130.313 3.38397L130.832 3.08206ZM142.078 11.6873L141.559 11.9856V10.3911L142.078 10.0928V11.6873ZM142.461 12.5098L150.34 20.0738L149.729 20.4227L141.856 12.8588L142.461 12.5098ZM151.087 20.6848L156.465 23.7834L155.946 24.0835L150.566 20.9831L151.087 20.6848ZM153.719 52.4229L150.971 54.012V47.8039L151.882 47.2833C151.907 47.2688 151.922 47.2435 151.943 47.2254C151.965 47.2073 151.98 47.1929 151.996 47.173C152.012 47.1531 152.037 47.1405 152.052 47.117C152.063 47.0971 152.052 47.0772 152.059 47.0573C152.077 47.0193 152.084 46.9886 152.088 46.947C152.092 46.9253 152.113 46.9127 152.113 46.891V37.0004C152.113 36.9588 152.079 36.9317 152.068 36.8919C152.059 36.8521 152.075 36.8106 152.054 36.7744C152.043 36.7545 152.018 36.7527 152.005 36.7365C151.969 36.6894 151.925 36.6659 151.875 36.6352C151.822 36.6027 151.779 36.5774 151.717 36.5701C151.698 36.5665 151.683 36.5466 151.663 36.5466C151.622 36.5466 151.595 36.581 151.557 36.59C151.517 36.6009 151.475 36.5846 151.437 36.6063L150.973 36.8738V35.7259L156.92 32.2874V50.5771L153.719 52.4229ZM168.903 78.5803L143.66 93.1622C143.658 93.1603 143.655 93.1603 143.653 93.1585C143.635 93.1441 143.635 93.1206 143.615 93.1097L141.903 92.1245C141.885 92.1136 141.865 92.1245 141.843 92.1172C141.789 92.0937 141.738 92.0937 141.679 92.0937C141.657 92.0937 141.639 92.0829 141.617 92.0865L168.904 76.3295L168.903 78.5803ZM111.779 82.5575C111.77 82.5177 111.786 82.4761 111.765 82.44C111.754 82.4201 111.729 82.4183 111.716 82.402C111.68 82.355 111.636 82.3315 111.586 82.3008C111.533 82.2682 111.49 82.2429 111.428 82.2357C111.409 82.2321 111.394 82.2122 111.374 82.2122C111.333 82.2122 111.307 82.2465 111.268 82.2556C111.228 82.2664 111.186 82.2501 111.148 82.2718L108.863 83.5861L96.8845 90.5101C96.8646 90.5209 96.8628 90.5462 96.8465 90.5589H96.8447V64.9927L112.35 56.0458V72.6163C112.35 72.638 112.372 72.6524 112.374 72.6723C112.383 72.732 112.408 72.7754 112.439 72.8278C112.468 72.8784 112.491 72.9236 112.538 72.9579C112.557 72.9724 112.558 72.9959 112.576 73.0068L116.004 74.9845C116.006 74.9845 116.006 74.9845 116.008 74.9845C116.076 75.0225 116.152 75.0442 116.23 75.0442C116.31 75.0442 116.387 75.0225 116.456 74.9827L118.969 73.5256V84.6021V86.3214L112.578 90.0075C112.558 90.0184 112.556 90.0437 112.54 90.0563C112.508 90.0816 112.488 90.1033 112.462 90.1359C112.448 90.1539 112.425 90.1539 112.414 90.1738C112.403 90.1937 112.414 90.2136 112.406 90.2335C112.39 90.2714 112.381 90.3022 112.376 90.3438C112.374 90.3655 112.352 90.3799 112.352 90.3998V93.4406L111.826 93.7407V82.6659C111.826 82.6226 111.792 82.5954 111.779 82.5575ZM83.2138 129.04C83.2192 129.08 83.2282 129.111 83.2445 129.15C83.2517 129.17 83.2427 129.19 83.2517 129.21C83.2644 129.235 83.2897 129.246 83.3078 129.264C83.3258 129.286 83.3421 129.302 83.362 129.319C83.3783 129.333 83.3891 129.353 83.4072 129.362C83.4108 129.366 83.4108 129.371 83.4162 129.375L84.9041 130.237V130.51L82.3822 129.056V127.795L83.1903 128.259V128.982C83.1903 129.004 83.2101 129.018 83.2138 129.04ZM54.7044 142.259L81.5939 126.732C81.5903 126.737 81.5903 126.744 81.5867 126.75C81.5741 126.766 81.5488 126.768 81.5379 126.788C81.5271 126.808 81.5379 126.827 81.5307 126.849C81.5144 126.887 81.5072 126.916 81.5017 126.958C81.4999 126.979 81.4782 126.994 81.4782 127.014V129.058L54.7044 144.513V142.259ZM54.2525 141.476L39.7574 133.101L50.8357 126.703L59.1625 131.515C59.2312 131.553 59.3107 131.575 59.3885 131.575C59.4662 131.575 59.5422 131.553 59.6108 131.515C59.6127 131.515 59.6127 131.515 59.6145 131.515L75.3136 122.454C75.3335 122.443 75.3353 122.418 75.3515 122.405C75.3985 122.369 75.422 122.326 75.4528 122.273C75.4835 122.223 75.5088 122.179 75.5179 122.12C75.5197 122.098 75.5414 122.084 75.5414 122.064V112.446L79.994 109.879L81.1926 110.571L94.4891 118.244L54.2525 141.476ZM42.0406 117.685C42.0406 117.685 42.0424 117.685 42.0442 117.685C42.1129 117.723 42.1889 117.745 42.2666 117.745C42.3443 117.745 42.4203 117.723 42.489 117.685C42.4908 117.685 42.4908 117.685 42.4926 117.685L44.0997 116.756V121.901V123.882C44.0997 123.924 44.1341 123.951 44.1431 123.991C44.154 124.031 44.1377 124.072 44.1594 124.108C44.1739 124.134 44.1974 124.145 44.2172 124.164C44.2335 124.186 44.2498 124.201 44.2697 124.217C44.351 124.284 44.4468 124.333 44.5517 124.333C44.6276 124.333 44.7054 124.313 44.7777 124.273L49.9227 121.31C49.9245 121.308 49.9245 121.305 49.9282 121.303C49.948 121.29 49.9589 121.268 49.9752 121.256C49.9968 121.238 50.0131 121.221 50.0294 121.201C50.0475 121.182 50.071 121.171 50.0854 121.147C50.0963 121.127 50.0854 121.107 50.0927 121.088C50.1089 121.05 50.118 121.019 50.1234 120.977C50.1252 120.956 50.1469 120.941 50.1469 120.921V113.274L50.3837 113.139V125.922L39.3036 132.32V116.105L42.0406 117.685ZM8.46397 69.7671L8.69899 69.6316L15.2795 70.9169V71.0959L8.46397 69.7671ZM17.1614 68.7078L25.076 73.2725H25.0778C25.0778 73.2743 25.0797 73.2743 25.0797 73.2743L27.9541 74.9411L27.4371 75.2394L16.6353 69.0079L17.1614 68.7078ZM27.8908 76.024L28.406 75.7275V77.3112L27.8908 77.6131V76.024ZM28.7911 78.1337L36.6732 85.6995L36.0658 86.0484L28.1837 78.4881L28.7911 78.1337ZM37.4216 86.3123L42.7909 89.4109L42.2684 89.711L36.9028 86.6088L37.4216 86.3123ZM68.424 74.7079L68.9464 75.008L64.6257 77.5028L64.1051 77.2045L68.424 74.7079ZM73.6594 78.0144L74.1837 78.3145L73.3864 78.7719L72.9019 78.4519L73.6594 78.0144ZM82.9625 67.2633V72.2276V72.2637L82.4472 71.7648V67.5652L82.9625 67.2633ZM77.4106 62.487L69.0314 54.4513V52.0053C69.0314 51.9818 69.0115 51.9691 69.0079 51.9493C69.0061 51.9312 69.0187 51.9113 69.0151 51.895L77.36 47.0772L95.6479 64.642L83.8664 71.4448V66.4769C83.8664 66.4552 83.8465 66.4408 83.8429 66.4209C83.8375 66.3811 83.8284 66.3485 83.8121 66.3106C83.8031 66.2889 83.814 66.269 83.8031 66.2491C83.7923 66.2292 83.7688 66.2292 83.7561 66.2112C83.7308 66.1786 83.7091 66.1587 83.6784 66.1334C83.6621 66.119 83.6603 66.0955 83.6404 66.0846L77.4106 62.487ZM67.6087 53.09L68.1275 52.7899V54.3844L67.6087 54.6863V53.09ZM112.056 55.1726L96.4633 64.1719L78.1754 46.6072L93.7642 37.606L112.056 55.1726ZM75.5396 89.9063L75.8921 90.1105L75.5396 90.3148V89.9063ZM76.344 89.3278L75.5414 88.8595V81.471L76.344 81.0082V89.3278ZM75.5396 91.3579L77.0147 90.5083L77.0183 90.5065C77.0202 90.5065 77.0202 90.5028 77.0202 90.5028C77.0419 90.4902 77.0545 90.4649 77.0744 90.4504C77.0961 90.4323 77.1105 90.4179 77.1286 90.398C77.1449 90.3763 77.1684 90.3655 77.1829 90.3438C77.1937 90.3239 77.1829 90.304 77.1919 90.2823C77.2082 90.2443 77.2154 90.2136 77.2208 90.172C77.2244 90.1503 77.2443 90.1359 77.2443 90.116V80.229C77.2443 80.1874 77.21 80.1603 77.1991 80.1205C77.1901 80.0808 77.2046 80.0392 77.1847 80.003C77.1738 79.9831 77.1485 79.9813 77.1359 79.9651C77.0997 79.9181 77.0563 79.8946 77.0039 79.8638C76.9515 79.8313 76.9099 79.806 76.8502 79.7987C76.8303 79.7951 76.8159 79.7752 76.7942 79.7752C76.7526 79.7752 76.7255 79.8096 76.6857 79.8186C76.6459 79.8277 76.6044 79.8132 76.5682 79.8349L75.5377 80.4279V79.2799L82.9588 74.9845V93.276L75.5377 97.566L75.5396 91.3579ZM82.6732 74.1095L75.5197 78.2494C75.5142 78.2133 75.5034 78.188 75.4889 78.1536C75.4817 78.1337 75.4907 78.1139 75.4817 78.094C75.4727 78.0741 75.4455 78.0723 75.4329 78.056C75.4257 78.047 75.4275 78.0325 75.4202 78.0235L82.675 73.8329L82.6732 74.1095ZM71.7937 78.8044C71.7937 78.8062 71.7937 78.8062 71.7937 78.8044L73.1225 79.6812C73.1261 79.6848 73.1315 79.683 73.137 79.6849C73.2075 79.7282 73.287 79.7553 73.3702 79.7553C73.4461 79.7553 73.5202 79.7337 73.5889 79.6975C73.5907 79.6957 73.5925 79.6975 73.5962 79.6957L74.6375 79.0991V81.2106V89.1018C74.6375 89.109 74.6302 89.1126 74.6302 89.1199C74.6302 89.1271 74.6375 89.1307 74.6375 89.1379V91.0976V98.3542V112.184V121.802L59.8422 130.34V87.6393L61.3283 86.7805C61.3482 86.7697 61.359 86.7426 61.3771 86.7299C61.4187 86.6956 61.4621 86.6667 61.491 86.6178C61.491 86.616 61.491 86.6142 61.491 86.6142C61.491 86.6124 61.4946 86.6106 61.4946 86.6088L65.018 80.2218C65.0379 80.1856 65.0217 80.1458 65.0307 80.1097C65.0415 80.0717 65.0741 80.0446 65.0741 80.003V78.2874L69.3966 75.7908V76.9876C69.3966 77.0057 69.4128 77.0165 69.4147 77.031C69.4201 77.0888 69.4508 77.1322 69.4779 77.1846C69.5069 77.2371 69.5267 77.2877 69.5719 77.3238C69.5846 77.3365 69.5846 77.3564 69.5991 77.3636L71.7937 78.8044ZM48.4277 114.256L49.243 113.789V120.133L48.4277 119.661V114.256ZM45.0036 122.161L47.9757 120.446L48.791 120.919L45.0036 123.1V122.161ZM49.4708 112.618L47.7515 113.603L44.3257 115.581L42.7186 116.51V90.4938L43.2446 90.1937V94.0606V95.8269C43.2446 95.8486 43.2645 95.863 43.2681 95.8829C43.2754 95.9426 43.3025 95.986 43.3314 96.0366C43.3621 96.089 43.3857 96.1342 43.4327 96.1686C43.4507 96.183 43.4507 96.2065 43.4706 96.2174L44.6132 96.8736C44.6819 96.9116 44.7614 96.9333 44.8391 96.9333C44.9169 96.9333 44.9946 96.9116 45.0633 96.8736L53.8005 91.828V110.112L50.6133 111.96H50.6115L49.4708 112.618ZM64.1738 79.222L63.6477 78.922V77.9837L64.1738 78.2856V79.222ZM63.3693 79.8042L64.0165 80.1748L60.9306 85.7682L60.2888 85.3939L63.3693 79.8042ZM59.6795 86.0827L60.202 86.3882L59.3885 86.8565L58.866 86.5546L59.6795 86.0827ZM57.2769 91.4682L57.5138 91.3326V91.602L57.2769 91.7376V91.4682ZM56.373 91.7412L54.7044 90.7831V90.5101L56.373 91.4682V91.7412ZM51.2876 112.613L54.4784 110.763C54.4965 110.752 54.4983 110.727 54.5146 110.716C54.5616 110.68 54.5869 110.637 54.6158 110.584C54.6466 110.534 54.6719 110.49 54.6809 110.43C54.6827 110.409 54.7044 110.394 54.7044 110.374V91.8262L56.599 92.9163C56.6677 92.9542 56.7473 92.9759 56.825 92.9759C56.9027 92.9759 56.9805 92.9542 57.0492 92.9163C57.0492 92.9163 57.051 92.9163 57.0528 92.9163L58.1935 92.2564C58.2134 92.2456 58.2152 92.2203 58.2315 92.2076C58.2785 92.1697 58.302 92.1281 58.3309 92.0775C58.3616 92.025 58.3888 91.9816 58.396 91.922C58.3978 91.9003 58.4195 91.8858 58.4195 91.8659V90.5517V87.3392L58.9401 87.6411V130.342L51.2913 125.922V112.613H51.2876ZM62.7438 78.7846L55.3932 74.5416L62.7438 77.3238V78.7846ZM62.4238 79.6433L59.3451 85.233L57.7397 86.1623C57.7199 86.1731 57.718 86.1984 57.7018 86.2111C57.6692 86.2364 57.6475 86.2581 57.624 86.2906C57.6114 86.3069 57.5861 86.3087 57.5752 86.3286C57.5644 86.3485 57.5752 86.3684 57.568 86.3882C57.5517 86.4262 57.5427 86.4569 57.5373 86.4985C57.5355 86.5202 57.5138 86.5347 57.5138 86.5546V89.7671L55.7746 88.7619L51.0906 73.1044L62.4238 79.6433ZM55.3932 89.5863L57.06 90.5499L56.825 90.6836L55.1564 89.7255L55.3932 89.5863ZM53.8005 90.7831L45.2911 95.6985V95.4273L53.8005 90.5119V90.7831ZM44.3872 95.7003L44.1485 95.5629V95.1254L44.3872 95.3568V95.7003ZM93.1785 92.6505L81.1908 99.5673C81.1709 99.5781 81.1691 99.6034 81.1528 99.6161C81.1058 99.6522 81.0823 99.6956 81.0516 99.748C81.0209 99.7987 80.9956 99.842 80.9865 99.9017C80.9847 99.9234 80.963 99.9379 80.963 99.9578V109.181V109.393L80.2164 108.963C80.1983 108.952 80.1766 108.963 80.1567 108.955C80.0989 108.93 80.0483 108.932 79.985 108.932C79.9271 108.934 79.8801 108.932 79.8277 108.953C79.806 108.963 79.7843 108.95 79.7644 108.963L75.5377 111.401V98.6145L83.6368 93.9323C83.6567 93.9214 83.6585 93.8961 83.6747 93.8835C83.7217 93.8473 83.7453 93.8039 83.776 93.7515C83.8067 93.7009 83.832 93.6575 83.8411 93.5978C83.8429 93.5761 83.8646 93.5617 83.8646 93.5418V72.4897L95.9408 65.517V91.3796C95.9263 91.3688 95.9065 91.3688 95.892 91.3597C95.8396 91.3272 95.7944 91.3019 95.7347 91.2947C95.713 91.2911 95.7004 91.2712 95.6805 91.2712C95.6389 91.2712 95.6118 91.3055 95.572 91.3164C95.5322 91.3272 95.4907 91.3091 95.4527 91.3326L93.1785 92.6505ZM82.4129 27.0718L82.6515 26.9344L89.2428 28.218V28.4006L82.4129 27.0718ZM91.1175 26.0125L99.0268 30.5772L101.916 32.2404L101.391 32.5441L90.6005 26.3089L91.1175 26.0125ZM101.842 33.3269L102.368 33.0232V34.6159L101.842 34.9178V33.3269ZM102.751 35.4384L110.624 42.9969L110.017 43.3476L102.136 35.791L102.751 35.4384ZM111.374 43.6098L116.751 46.7138L116.232 47.0139L110.855 43.9099L111.374 43.6098ZM143.864 31.1521L144.385 31.454L140.064 33.956L139.538 33.6505L143.864 31.1521ZM149.094 34.4622L149.62 34.7587L148.823 35.2161L148.337 34.8961L149.094 34.4622ZM156.637 31.407L150.951 34.6936C150.946 34.6593 150.931 34.6358 150.918 34.6014C150.909 34.5797 150.922 34.5598 150.909 34.54C150.899 34.5201 150.873 34.5183 150.862 34.502C150.855 34.4929 150.855 34.4785 150.848 34.4694L156.635 31.1376L156.637 31.407ZM153.493 66.3956L150.971 67.8545V55.0587L153.493 53.5998V66.3956ZM151.21 46.11L150.971 45.9726V37.9188L151.21 37.7814V46.11ZM147.225 35.2486C147.227 35.2486 147.227 35.2486 147.225 35.2486L148.557 36.1236C148.563 36.1272 148.568 36.1254 148.572 36.1272C148.642 36.1706 148.724 36.1977 148.807 36.1977C148.883 36.1977 148.957 36.176 149.024 36.1399C149.027 36.1381 149.029 36.1399 149.031 36.1381L150.067 35.5451V37.6566V46.2329V47.5436V54.7966V68.6373V78.2549L135.283 86.7896V44.0834L136.769 43.2247C136.77 43.2247 136.77 43.2229 136.77 43.2229C136.799 43.2066 136.816 43.1741 136.841 43.1506C136.873 43.1217 136.911 43.1 136.933 43.0584C136.935 43.0584 136.933 43.0566 136.935 43.0548C136.937 43.053 136.937 43.053 136.939 43.0512L140.462 36.6678C140.482 36.6316 140.466 36.5918 140.475 36.5557C140.486 36.5177 140.518 36.4906 140.518 36.449V34.7406L144.835 32.2422V33.4299C144.835 33.448 144.853 33.4589 144.853 33.4733C144.86 33.533 144.889 33.5764 144.918 33.6288C144.947 33.6812 144.965 33.73 145.012 33.7662C145.025 33.777 145.023 33.7969 145.039 33.806L147.225 35.2486ZM116.682 47.7967L117.201 47.4966V51.3708V53.1225C117.201 53.1442 117.221 53.1587 117.224 53.1786C117.232 53.2382 117.26 53.2816 117.288 53.3322C117.32 53.3847 117.342 53.4299 117.391 53.4642C117.407 53.4787 117.409 53.5022 117.429 53.513L118.571 54.1729C118.571 54.1729 118.573 54.1729 118.575 54.1729C118.642 54.2108 118.719 54.2325 118.797 54.2325C118.875 54.2325 118.953 54.2108 119.019 54.1729C119.021 54.1729 119.023 54.1729 119.023 54.1729L129.241 48.2685V66.5546L126.041 68.404L124.329 69.3857L122.624 70.3782L119.197 72.3487L116.684 73.8076L116.682 47.7967ZM139.616 35.668L139.09 35.3679V34.4333L139.616 34.7388V35.668ZM138.81 36.2483L139.457 36.6208L136.371 42.2123L135.729 41.8381L138.81 36.2483ZM135.118 42.5287L135.641 42.8306L134.829 43.3006L134.305 43.0005L135.118 42.5287ZM132.71 47.9106L132.949 47.7732V48.048L132.71 48.1854V47.9106ZM131.806 48.1836L130.143 47.2254V46.9524L131.806 47.9106V48.1836ZM123.299 71.0326L124.101 70.5644V82.8377L123.299 82.3749V71.0326ZM125.007 70.0419L125.815 69.5791V82.3749L125.007 82.8377V70.0419ZM126.719 69.0603L129.919 67.2109C129.939 67.2 129.94 67.1747 129.957 67.1621C130.002 67.1259 130.027 67.0825 130.056 67.0301C130.089 66.9795 130.112 66.9361 130.121 66.8764C130.123 66.8547 130.145 66.8403 130.145 66.8204V48.2685L132.034 49.3587C132.103 49.3966 132.182 49.4183 132.26 49.4183C132.338 49.4183 132.415 49.3966 132.484 49.3587L133.627 48.7024C133.648 48.6916 133.648 48.6663 133.665 48.6536C133.712 48.6175 133.735 48.5741 133.768 48.5216C133.797 48.471 133.824 48.4276 133.831 48.368C133.835 48.3463 133.854 48.3318 133.854 48.3119V46.994V43.7851L134.381 44.0852V86.7932L126.721 82.3785V69.0603H126.719ZM138.186 35.2269L130.846 30.993L138.186 33.7716V35.2269ZM137.866 36.0874L134.784 41.6808L133.173 42.6137C133.155 42.6245 133.153 42.6498 133.137 42.6607C133.104 42.686 133.081 42.7077 133.055 42.742C133.043 42.7583 133.017 42.7601 133.008 42.78C132.999 42.7999 133.008 42.8198 132.999 42.8397C132.985 42.8776 132.976 42.9065 132.97 42.9481C132.967 42.9698 132.947 42.9843 132.947 43.0042V46.2094L131.213 45.2079L126.529 29.5504L137.866 36.0874ZM130.834 46.0323L132.495 46.9922L132.258 47.126L130.595 46.1697L130.834 46.0323ZM129.241 47.2254L119.249 52.9978V52.723L129.241 46.9543V47.2254ZM118.343 52.9978L118.105 52.8604V52.4283L118.343 52.6561V52.9978ZM113.256 91.1844L127.762 99.5636V100.292C127.762 100.314 127.782 100.328 127.786 100.348C127.791 100.388 127.8 100.421 127.816 100.459C127.825 100.478 127.815 100.498 127.825 100.518C127.838 100.543 127.863 100.554 127.88 100.572C127.898 100.594 127.914 100.61 127.934 100.627C127.952 100.641 127.963 100.665 127.983 100.674C127.984 100.675 127.984 100.681 127.988 100.683L129.469 101.538V102.268C129.469 102.29 129.49 102.304 129.494 102.324C129.498 102.364 129.507 102.396 129.523 102.434C129.53 102.454 129.519 102.474 129.53 102.494C129.545 102.519 129.568 102.53 129.586 102.548C129.604 102.57 129.621 102.586 129.64 102.603C129.66 102.619 129.671 102.641 129.691 102.653C129.695 102.655 129.695 102.657 129.695 102.659L131.186 103.517V103.792L113.254 93.4388L113.256 91.1844ZM142.485 93.502L129.922 100.755L129.12 100.292L141.679 93.0392L142.485 93.502ZM131.638 102.735L130.828 102.268L143.393 95.0152L144.197 95.478L131.638 102.735ZM128.214 98.7809L113.708 90.4016L119.647 86.9758C119.667 86.9649 119.668 86.9396 119.685 86.927C119.73 86.8908 119.755 86.8474 119.784 86.7968C119.817 86.7444 119.84 86.701 119.849 86.6413C119.851 86.6197 119.873 86.6052 119.873 86.5853V84.8661L122.848 83.1595L124.329 84.0128C124.398 84.0507 124.477 84.0724 124.555 84.0724C124.633 84.0724 124.71 84.0507 124.779 84.0128L126.267 83.1595L134.605 87.9665C134.673 88.0044 134.753 88.0261 134.831 88.0261C134.91 88.0261 134.986 88.0044 135.055 87.9665C135.055 87.9665 135.055 87.9665 135.057 87.9665L150.745 78.9093C150.765 78.8984 150.767 78.8731 150.783 78.8605C150.83 78.8243 150.853 78.7809 150.886 78.7285C150.915 78.6779 150.942 78.6345 150.949 78.5748C150.953 78.5532 150.973 78.5387 150.973 78.5188V68.9012L153.947 67.182L168.453 75.5504L128.214 98.7809ZM156.919 29.5666L156.398 29.0659V24.8681L156.919 24.568V29.5666ZM155.633 29.5865L156.34 30.2663L149.984 33.9253L149.317 33.5475C149.299 33.5366 149.279 33.5475 149.257 33.5402C149.203 33.5167 149.152 33.5185 149.093 33.5203C149.035 33.5203 148.984 33.5185 148.928 33.542C148.91 33.5493 148.888 33.5384 148.868 33.5493L147.491 34.3393L145.739 33.1859V31.4558C145.739 31.4341 145.717 31.4197 145.716 31.3998C145.71 31.36 145.701 31.3293 145.685 31.2895C145.678 31.2696 145.688 31.2497 145.678 31.2298C145.667 31.2099 145.641 31.2099 145.629 31.1919C145.603 31.1593 145.584 31.1376 145.549 31.1123C145.533 31.0997 145.531 31.0744 145.511 31.0653L144.089 30.2391C144.067 30.2265 144.047 30.2391 144.027 30.2301C143.973 30.2066 143.922 30.2066 143.863 30.2066C143.801 30.2066 143.75 30.2048 143.696 30.2283C143.675 30.2373 143.655 30.2265 143.635 30.2373L138.788 33.0376L125.929 28.1674C125.884 28.1475 125.837 28.1728 125.79 28.171C125.741 28.1674 125.692 28.1439 125.645 28.1565C125.643 28.1583 125.643 28.1565 125.64 28.1565C125.632 28.1601 125.629 28.171 125.62 28.1728C125.564 28.1945 125.529 28.2379 125.486 28.2813C125.452 28.3138 125.403 28.321 125.378 28.3644C125.378 28.3662 125.378 28.3699 125.378 28.3717C125.37 28.3825 125.374 28.3952 125.367 28.4078C125.363 28.4187 125.35 28.4205 125.345 28.4313C125.327 28.4783 125.352 28.5235 125.35 28.5705C125.349 28.6193 125.323 28.6681 125.336 28.7133C125.336 28.717 125.334 28.7188 125.334 28.7206L130.295 45.2983L129.461 45.781L118.859 51.9041L118.101 51.1809V46.7174C118.101 46.6957 118.081 46.6813 118.078 46.6614C118.072 46.6216 118.063 46.5909 118.047 46.5511C118.038 46.5312 118.05 46.5113 118.038 46.4915C118.027 46.4716 118.003 46.4716 117.993 46.4535C117.967 46.4209 117.946 46.3993 117.911 46.3739C117.895 46.3595 117.893 46.336 117.873 46.3251L111.644 42.7276L103.266 34.6882V32.244C103.266 32.2223 103.246 32.2079 103.243 32.188C103.237 32.1482 103.228 32.1157 103.212 32.0777C103.203 32.0578 103.214 32.0379 103.203 32.018C103.192 31.9982 103.168 31.9982 103.158 31.9801C103.132 31.9475 103.111 31.9258 103.076 31.9005C103.06 31.8861 103.058 31.8626 103.038 31.8517L100.149 30.1885L135.185 9.96082L155.633 29.5865ZM80.9142 27.6757C80.9142 27.6757 80.916 27.6757 80.9178 27.6757C80.9486 27.6937 80.9847 27.6937 81.0191 27.7046C81.0335 27.7082 81.0389 27.7245 81.0552 27.7281L89.608 29.3913C89.6369 29.3985 89.6659 29.4003 89.6948 29.4003C89.8105 29.4003 89.9135 29.3515 89.9949 29.2774C90.022 29.2503 90.0274 29.2177 90.0473 29.1852C90.0817 29.1382 90.1251 29.0966 90.1395 29.0351C90.1431 29.0189 90.1287 29.0062 90.1287 28.9899C90.1305 28.9755 90.1468 28.9646 90.1468 28.9502V27.8492V27.0971L100.939 33.3323V35.7042C100.939 35.706 100.941 35.7078 100.941 35.7096C100.941 35.7476 100.976 35.7783 100.983 35.8181C100.994 35.856 100.979 35.8958 100.999 35.9302C101.014 35.9555 101.037 35.9663 101.057 35.9862C101.066 35.9989 101.064 36.0151 101.075 36.0242C101.079 36.026 101.077 36.0278 101.079 36.0296L109.637 44.2389C109.648 44.2498 109.664 44.2461 109.675 44.2552C109.689 44.2678 109.7 44.2877 109.716 44.295C109.718 44.2968 109.718 44.3022 109.722 44.304L115.778 47.8003V73.813L113.254 72.3577V55.2648C113.254 55.263 113.253 55.2612 113.253 55.2594C113.251 55.2196 113.218 55.1889 113.209 55.1491C113.198 55.1111 113.215 55.0732 113.195 55.037C113.184 55.0171 113.159 55.0171 113.146 54.9991C113.133 54.981 113.135 54.9575 113.119 54.9412C113.117 54.9394 113.117 54.9376 113.117 54.9358L94.1456 36.7166C94.1131 36.6876 94.0715 36.6931 94.0354 36.6768C93.9974 36.6533 93.9721 36.6189 93.9287 36.6099C93.9251 36.6081 93.9215 36.6027 93.9161 36.6009L75.3045 32.9852V24.436L80.9142 27.6757ZM74.9357 33.8313L92.5584 37.2553L77.3456 46.0413L59.7211 42.6119L74.9357 33.8313ZM58.5298 43.297L76.1542 46.7265L68.2468 51.2912L57.1088 44.8608C57.0889 44.85 57.0672 44.8608 57.0473 44.8536C56.9913 44.8283 56.9425 44.8301 56.881 44.8301C56.8232 44.8319 56.7726 44.8301 56.7201 44.8518C56.7002 44.8608 56.6767 44.85 56.6569 44.8608L55.2323 45.6834C55.2124 45.6942 55.2106 45.7195 55.1943 45.7322C55.1618 45.7575 55.1401 45.7792 55.1148 45.8117C55.1021 45.8298 55.0768 45.8298 55.0678 45.8497C55.0569 45.8696 55.0678 45.8894 55.0606 45.9093C55.0443 45.9473 55.0352 45.978 55.0298 46.0196C55.028 46.0413 55.0063 46.0558 55.0063 46.0756V47.0573L52.7682 46.6252L58.5298 43.297ZM56.8828 45.7774L67.6737 52.0053L67.1567 52.3054L56.364 46.0775L56.8828 45.7774ZM68.5107 55.2052L76.3892 62.7636L75.7746 63.118L67.9015 55.5577L68.5107 55.2052ZM77.1377 63.3765L82.5141 66.4805L81.9935 66.7842L76.6116 63.6802L77.1377 63.3765ZM81.6825 72.2818L82.3803 72.9579L74.5489 77.4811L73.8836 77.0997C73.8637 77.0888 73.8438 77.0997 73.8221 77.0906C73.7661 77.0671 73.7173 77.0689 73.6558 77.0689C73.5961 77.0689 73.5455 77.0671 73.4913 77.0906C73.4714 77.0997 73.4497 77.0888 73.4298 77.0997L72.0559 77.8951L70.3023 76.7417V75.0044C70.3023 74.9809 70.2824 74.9682 70.2788 74.9484C70.2734 74.9086 70.2661 74.876 70.2499 74.8381C70.2426 74.8182 70.2517 74.7983 70.2426 74.7784C70.2336 74.7585 70.2083 74.7585 70.1956 74.7405C70.1703 74.7061 70.1468 74.6862 70.1143 74.6609C70.0962 74.6464 70.0962 74.6229 70.0763 74.6121L68.6463 73.7932C68.6264 73.7823 68.6066 73.7932 68.5849 73.7841C68.5306 73.7624 68.4818 73.7624 68.4222 73.7624C68.3607 73.7624 68.3083 73.7606 68.2522 73.7859C68.2342 73.7932 68.2125 73.7823 68.1944 73.7932L63.3567 76.5917L50.4922 71.7214C50.4452 71.7015 50.4018 71.7268 50.353 71.725C50.3024 71.7214 50.2554 71.6961 50.2066 71.7105C50.2048 71.7124 50.2029 71.7105 50.2011 71.7105C50.1921 71.7142 50.1885 71.725 50.1794 71.7286C50.1234 71.7485 50.0891 71.7937 50.0439 71.8371C50.0095 71.8678 49.9625 71.8751 49.939 71.9184C49.939 71.9203 49.939 71.9221 49.939 71.9257C49.9336 71.9365 49.9354 71.9492 49.93 71.9618C49.9263 71.9727 49.9137 71.9745 49.9083 71.9853C49.8902 72.0323 49.9137 72.0793 49.9119 72.1263C49.9101 72.1752 49.8848 72.2222 49.8974 72.2674C49.8974 72.271 49.8956 72.2728 49.8974 72.2746L54.8581 88.8541L54.0283 89.3386L44.9078 94.6066L44.1485 93.8708V89.4164C44.1485 89.3947 44.1287 89.3802 44.125 89.3603C44.1196 89.3205 44.1106 89.2898 44.0961 89.25C44.0889 89.2319 44.0979 89.2121 44.0889 89.1922C44.078 89.1723 44.0527 89.1705 44.0401 89.1542C44.0148 89.1199 43.9931 89.0982 43.9605 89.0729C43.9443 89.0584 43.9425 89.0349 43.9226 89.024L37.6964 85.4301L29.31 77.3799V74.9465C29.31 74.9249 29.2901 74.9104 29.2865 74.8905C29.281 74.8507 29.272 74.82 29.2557 74.7802C29.2485 74.7603 29.2593 74.7405 29.2485 74.7206C29.2376 74.7007 29.2123 74.6989 29.1997 74.6826C29.1744 74.6501 29.1527 74.6284 29.1201 74.6031C29.1039 74.5904 29.1021 74.5651 29.084 74.5561L26.2023 72.8856L61.2288 52.6615L81.6825 72.2818ZM1.35562 114.227V67.1368L6.96529 70.371C6.99783 70.389 7.03579 70.389 7.07014 70.3999C7.08461 70.4035 7.09003 70.4198 7.1063 70.4234L15.6483 72.0866C15.6772 72.092 15.7061 72.0956 15.735 72.0956C15.8489 72.0956 15.952 72.0468 16.0333 71.9727C16.0604 71.9456 16.0677 71.913 16.0876 71.8805C16.1201 71.8335 16.1653 71.7919 16.1779 71.7304C16.1816 71.7142 16.1671 71.7015 16.1689 71.6852C16.1707 71.6708 16.1852 71.6599 16.1852 71.6455V70.5481V69.7961L26.9887 76.0276V78.4031C26.9887 78.4049 26.9905 78.4067 26.9905 78.4085C26.9905 78.4465 27.0249 78.479 27.0339 78.5188C27.0448 78.5568 27.0285 78.5965 27.0502 78.6309C27.0646 78.6544 27.0881 78.6652 27.1044 78.6851C27.1153 78.696 27.1135 78.7141 27.1243 78.7231C27.1261 78.7249 27.1243 78.7267 27.1261 78.7285L35.6843 86.9378C35.6952 86.9487 35.7114 86.9432 35.7223 86.9523C35.7386 86.9667 35.7494 86.9866 35.7657 86.9957C35.7675 86.9975 35.7675 87.0011 35.7711 87.0029L41.8147 90.4956V116.508L39.0776 114.927C39.0396 114.905 38.9999 114.921 38.9601 114.912C38.9221 114.899 38.8932 114.867 38.8516 114.867C38.8281 114.867 38.8155 114.889 38.7938 114.892C38.7359 114.899 38.6962 114.925 38.6455 114.952C38.5913 114.984 38.5443 115.006 38.5081 115.058C38.4955 115.075 38.4702 115.075 38.4611 115.095C38.4395 115.133 38.4557 115.172 38.4467 115.21C38.4358 115.248 38.4015 115.277 38.4015 115.321V133.102C38.4015 133.124 38.4214 133.138 38.425 133.158C38.4304 133.198 38.4394 133.229 38.4557 133.269C38.463 133.289 38.4521 133.308 38.463 133.328C38.4756 133.354 38.5009 133.364 38.519 133.383C38.5371 133.404 38.5533 133.421 38.5732 133.437C38.5913 133.451 38.6022 133.475 38.622 133.484C38.6238 133.486 38.6238 133.491 38.6275 133.493L53.8023 142.261V144.513L1.35562 114.227ZM87.0662 131.434L86.2545 130.962L98.8171 123.707L99.6324 124.181L87.0662 131.434ZM85.356 129.452L84.5461 128.982L97.1105 121.729L97.9168 122.198L85.356 129.452ZM83.6404 127.476L82.8341 127.014L95.393 119.757L96.2029 120.222L83.6404 127.476ZM93.8546 102.008V93.3032L95.2285 92.5077V102.8L93.8546 102.008ZM109.541 92.9434V84.2406L110.922 83.4469V93.7407L109.541 92.9434ZM133.343 104.712L132.54 104.244L145.103 96.9893L145.913 97.4593L133.343 104.712ZM122.129 4.14506L122.369 4.00586L128.959 5.29122V5.47742L122.129 4.14506ZM115.995 0.42637L121.38 3.5304L120.854 3.83411L115.474 0.722853L115.995 0.42637ZM120.63 4.74887C120.632 4.74887 120.632 4.74887 120.63 4.74887C120.665 4.76695 120.701 4.76695 120.735 4.7778C120.75 4.78141 120.757 4.79768 120.771 4.8013L129.324 6.46811C129.353 6.47353 129.382 6.47715 129.411 6.47715C129.527 6.47715 129.63 6.42834 129.711 6.35421C129.738 6.3271 129.743 6.29456 129.763 6.26202C129.798 6.21501 129.841 6.17343 129.856 6.11197C129.859 6.0957 129.845 6.08304 129.845 6.06677C129.846 6.05231 129.863 6.04146 129.863 6.027V4.92242V4.17218L140.657 10.3947V12.7702C140.657 12.772 140.659 12.7738 140.659 12.7756C140.661 12.8136 140.693 12.8461 140.702 12.8841C140.713 12.922 140.695 12.9618 140.717 12.9961C140.731 13.0215 140.755 13.0323 140.773 13.0522C140.784 13.063 140.782 13.0811 140.793 13.0902C140.795 13.092 140.795 13.0938 140.795 13.0956L149.346 21.3121C149.358 21.323 149.375 21.3194 149.385 21.3284C149.402 21.341 149.413 21.3627 149.429 21.37C149.429 21.3718 149.429 21.3754 149.432 21.3772L155.494 24.8699V28.2017L135.574 9.06956C135.545 9.04064 135.503 9.04606 135.467 9.02979C135.429 9.00629 135.402 8.97194 135.359 8.9629C135.353 8.96109 135.351 8.95567 135.346 8.95386L115.022 5.00196V1.50745L120.63 4.74887ZM46.6795 47.4442C46.7138 47.4622 46.75 47.4622 46.7844 47.4731C46.7988 47.4767 46.8042 47.493 46.8205 47.4966L55.3733 49.1562C55.4022 49.1634 55.4312 49.1652 55.4601 49.1652C55.574 49.1652 55.677 49.1164 55.7584 49.0423C55.7855 49.0152 55.7927 48.9826 55.8126 48.9501C55.8451 48.9031 55.8903 48.8615 55.903 48.8C55.9048 48.7838 55.8922 48.7711 55.894 48.7566C55.8958 48.7404 55.912 48.7295 55.912 48.7151V47.6105V46.8657L66.7065 53.0936V55.4727C66.7065 55.4745 66.7084 55.4763 66.7084 55.4781C66.7084 55.5161 66.7427 55.5486 66.7517 55.5884C66.7608 55.6264 66.7463 55.6661 66.7662 55.7005C66.7807 55.7258 66.8042 55.7366 66.8222 55.7547C66.8313 55.7674 66.8295 55.7836 66.8403 55.7927C66.8421 55.7945 66.8403 55.7963 66.8421 55.7981L75.3931 64.0074C75.404 64.0183 75.4221 64.0147 75.4329 64.0237C75.4474 64.0364 75.4582 64.0544 75.4727 64.0635C75.4763 64.0653 75.4763 64.0707 75.4799 64.0725L81.5415 67.5688V70.8988L61.6103 51.7721C61.5796 51.7432 61.538 51.7486 61.5036 51.7323C61.4657 51.7088 61.4386 51.6745 61.3952 51.6654C61.3897 51.6636 61.3879 51.6582 61.3825 51.6564L41.0698 47.7009V44.2027L46.6795 47.4442ZM99.2726 122.926L99.269 122.924V122.458L99.6776 122.695L99.2726 122.926ZM97.5642 120.95L97.5624 120.487L97.9656 120.721L97.5642 120.95ZM95.8486 118.974L95.845 118.972V118.508L96.2518 118.743L95.8486 118.974ZM145.556 96.2083L145.555 95.7473L145.958 95.9805L145.556 96.2083Z" fill="#00BD4C"/>
</svg>
