<svg width="206" height="206" viewBox="0 0 206 206" fill="none" xmlns="http://www.w3.org/2000/svg">
<path fill-rule="evenodd" clip-rule="evenodd" d="M103.785 129.581L111.613 106.753L76.8115 72.1924L103.785 129.581Z" fill="#00BD4C"/>
<path fill-rule="evenodd" clip-rule="evenodd" d="M112.278 101.655L103.453 92.9081L134.037 38.7479L112.278 101.655Z" fill="#00BD4C"/>
<path d="M136.775 40.905V43.1964H136.314V40.905H135.296V40.4587H137.873V40.905H136.775ZM140.83 43.1964L140.838 40.9641H140.758L139.982 43.1161H139.469L138.789 40.9709H138.707L138.671 43.1964H138.247L138.298 40.4587H139.132L139.718 42.5736H139.798L140.472 40.458H141.262L141.299 43.1957L140.83 43.1964Z" fill="#404F71"/>
<path d="M181.187 145.145H177.902V163.662H181.187V145.145Z" fill="#404F71"/>
<path d="M33.3934 157.277L27.9949 145.145H24.6494L32.9807 163.818H33.9249L42.0756 145.145H38.7728L33.3934 157.277Z" fill="#404F71"/>
<path d="M56.2879 145.211L56.2075 145.035H53.9312L45.6631 163.662H49.0532L51.4022 158.379H58.9364L61.4145 163.662H64.8128L56.2879 145.211ZM57.5548 155.461H52.6973L55.0368 150.022L57.5548 155.461Z" fill="#404F71"/>
<path d="M78.0319 152.663C76.3599 151.755 74.9151 150.971 74.9151 149.642C74.9151 148.569 76.0014 147.819 77.5574 147.819C79.125 147.859 80.6178 148.498 81.7289 149.605L82.2364 150.068V146.301L82.099 146.212C80.8141 145.37 79.3147 144.914 77.7785 144.898C74.1584 144.898 71.8203 146.896 71.8203 149.988C71.8203 152.79 74.2676 154.211 76.4272 155.465C78.2043 156.495 79.8838 157.471 79.8838 159.019C79.8838 159.774 79.1429 160.975 77.1537 160.975C76.2357 160.94 75.3376 160.698 74.5261 160.267C73.7147 159.837 73.0106 159.229 72.4665 158.489L71.9281 158.68V162.092L72.0538 162.182C73.6172 163.33 75.5155 163.93 77.4544 163.889C80.6529 163.889 82.9738 161.72 82.9738 158.731C82.9711 155.344 80.2334 153.857 78.0319 152.663Z" fill="#404F71"/>
<path d="M115.815 145.145L110.928 157L105.947 145.145H103.002L98.0452 157.002L93.1891 145.331L93.1122 145.145H89.7764L97.4938 163.631L97.5707 163.818H98.495L104.461 149.642L110.293 163.631L110.37 163.818H111.303L119.119 145.145H115.815Z" fill="#404F71"/>
<path d="M133.277 145.036H131.006L122.734 163.663H126.124L128.476 158.38H136.008L138.491 163.663H141.89L133.356 145.212L133.277 145.036ZM134.628 155.462H129.767L132.113 150.023L134.628 155.462Z" fill="#404F71"/>
<path d="M164.576 158.527L152.4 145.145H149.826V163.662H152.944V150.356L164.96 163.662H167.698V145.145H164.576V158.527Z" fill="#404F71"/>
</svg>
