<svg width="515" height="116" viewBox="0 0 515 116" fill="none" xmlns="http://www.w3.org/2000/svg">
<path d="M43.4428 73.868L0.624759 1.97799H33.0148L65.7208 60.28H42.9688L75.6748 1.97799H107.433L64.2988 73.868H43.4428ZM40.1248 114V62.334H68.4068V114H40.1248ZM122.904 114V1.97799H151.186V114H122.904ZM145.34 114V90.142H206.012V114H145.34ZM145.34 68.496V45.27H200.324V68.496H145.34ZM145.34 25.836V1.97799H205.064V25.836H145.34ZM221.647 114L265.097 1.97799H292.431L335.407 114H305.861L273.471 19.832H283.741L250.561 114H221.647ZM248.033 94.408V71.972H309.811V94.408H248.033ZM376.23 68.654V48.43H397.56C402.195 48.43 405.724 47.324 408.146 45.112C410.674 42.7947 411.938 39.6873 411.938 35.79C411.938 31.998 410.674 28.9433 408.146 26.626C405.724 24.2033 402.195 22.992 397.56 22.992H376.23V1.97799H401.51C409.094 1.97799 415.73 3.39999 421.418 6.24399C427.212 9.08799 431.741 12.9853 435.006 17.936C438.272 22.8867 439.904 28.68 439.904 35.316C439.904 41.952 438.219 47.798 434.848 52.854C431.583 57.8047 427.001 61.702 421.102 64.546C415.204 67.2847 408.304 68.654 400.404 68.654H376.23ZM353.794 114V1.97799H382.076V114H353.794ZM414.466 114L381.918 65.968L407.356 59.806L447.172 114H414.466ZM496.909 115.738C487.534 115.738 479.371 114.316 472.419 111.472C465.572 108.628 459.305 104.151 453.617 98.042L471.471 80.03C475.368 84.138 479.529 87.298 483.953 89.51C488.377 91.6167 493.38 92.67 498.963 92.67C503.703 92.67 507.337 91.88 509.865 90.3C512.498 88.6147 513.815 86.35 513.815 83.506C513.815 80.8727 512.867 78.7133 510.971 77.028C509.075 75.2373 506.547 73.71 503.387 72.446C500.332 71.0767 496.909 69.8127 493.117 68.654C489.43 67.39 485.691 65.9153 481.899 64.23C478.212 62.4393 474.789 60.28 471.629 57.752C468.574 55.224 466.099 52.064 464.203 48.272C462.307 44.48 461.359 39.7927 461.359 34.21C461.359 27.0473 463.044 20.938 466.415 15.882C469.891 10.826 474.684 6.92866 480.793 4.18999C486.902 1.45133 494.012 0.0819975 502.123 0.0819975C510.234 0.0819975 517.712 1.45133 524.559 4.18999C531.406 6.92866 537.041 10.7207 541.465 15.566L523.453 33.42C520.082 30.0493 516.659 27.5213 513.183 25.836C509.707 24.1507 505.915 23.308 501.807 23.308C497.91 23.308 494.855 23.9927 492.643 25.362C490.431 26.7313 489.325 28.68 489.325 31.208C489.325 33.736 490.273 35.79 492.169 37.37C494.065 38.95 496.54 40.372 499.595 41.636C502.755 42.7947 506.178 44.006 509.865 45.27C513.657 46.534 517.396 48.0087 521.083 49.694C524.77 51.3793 528.14 53.5387 531.195 56.172C534.355 58.8053 536.883 62.1233 538.779 66.126C540.675 70.1287 541.623 74.974 541.623 80.662C541.623 91.8273 537.673 100.465 529.773 106.574C521.978 112.683 511.024 115.738 496.909 115.738Z" fill="#00BD4C"/>
</svg>
