<svg width="60" height="122" viewBox="0 0 60 122" fill="none" xmlns="http://www.w3.org/2000/svg">
<circle cx="58" cy="122" r="2" transform="rotate(-180 58 122)" fill="white"/>
<circle cx="58" cy="106" r="2" transform="rotate(-180 58 106)" fill="white"/>
<circle cx="42" cy="122" r="2" transform="rotate(-180 42 122)" fill="white"/>
<circle cx="42" cy="106" r="2" transform="rotate(-180 42 106)" fill="white"/>
<circle cx="50" cy="122" r="2" transform="rotate(-180 50 122)" fill="white"/>
<circle cx="50" cy="106" r="2" transform="rotate(-180 50 106)" fill="white"/>
<circle cx="34" cy="122" r="2" transform="rotate(-180 34 122)" fill="white"/>
<circle cx="34" cy="106" r="2" transform="rotate(-180 34 106)" fill="white"/>
<circle cx="58" cy="114" r="2" transform="rotate(-180 58 114)" fill="white"/>
<circle cx="58" cy="98" r="2" transform="rotate(-180 58 98)" fill="white"/>
<circle cx="42" cy="114" r="2" transform="rotate(-180 42 114)" fill="white"/>
<circle cx="42" cy="98" r="2" transform="rotate(-180 42 98)" fill="white"/>
<circle cx="50" cy="114" r="2" transform="rotate(-180 50 114)" fill="white"/>
<circle cx="50" cy="98" r="2" transform="rotate(-180 50 98)" fill="white"/>
<circle cx="34" cy="114" r="2" transform="rotate(-180 34 114)" fill="white"/>
<circle cx="34" cy="98" r="2" transform="rotate(-180 34 98)" fill="white"/>
<circle cx="58" cy="90" r="2" transform="rotate(-180 58 90)" fill="white"/>
<circle cx="58" cy="74" r="2" transform="rotate(-180 58 74)" fill="white"/>
<circle cx="42" cy="90" r="2" transform="rotate(-180 42 90)" fill="white"/>
<circle cx="42" cy="74" r="2" transform="rotate(-180 42 74)" fill="white"/>
<circle cx="50" cy="90" r="2" transform="rotate(-180 50 90)" fill="white"/>
<circle cx="50" cy="74" r="2" transform="rotate(-180 50 74)" fill="white"/>
<circle cx="34" cy="90" r="2" transform="rotate(-180 34 90)" fill="white"/>
<circle cx="34" cy="74" r="2" transform="rotate(-180 34 74)" fill="white"/>
<circle cx="58" cy="82" r="2" transform="rotate(-180 58 82)" fill="white"/>
<circle cx="58" cy="66" r="2" transform="rotate(-180 58 66)" fill="white"/>
<circle cx="42" cy="82" r="2" transform="rotate(-180 42 82)" fill="white"/>
<circle cx="42" cy="66" r="2" transform="rotate(-180 42 66)" fill="white"/>
<circle cx="50" cy="82" r="2" transform="rotate(-180 50 82)" fill="white"/>
<circle cx="50" cy="66" r="2" transform="rotate(-180 50 66)" fill="white"/>
<circle cx="34" cy="82" r="2" transform="rotate(-180 34 82)" fill="white"/>
<circle cx="34" cy="66" r="2" transform="rotate(-180 34 66)" fill="white"/>
<circle cx="58" cy="58" r="2" transform="rotate(-180 58 58)" fill="white"/>
<circle cx="58" cy="42" r="2" transform="rotate(-180 58 42)" fill="white"/>
<circle cx="42" cy="58" r="2" transform="rotate(-180 42 58)" fill="white"/>
<circle cx="42" cy="42" r="2" transform="rotate(-180 42 42)" fill="white"/>
<circle cx="50" cy="58" r="2" transform="rotate(-180 50 58)" fill="white"/>
<circle cx="50" cy="42" r="2" transform="rotate(-180 50 42)" fill="white"/>
<circle cx="34" cy="58" r="2" transform="rotate(-180 34 58)" fill="white"/>
<circle cx="34" cy="42" r="2" transform="rotate(-180 34 42)" fill="white"/>
<circle cx="58" cy="50" r="2" transform="rotate(-180 58 50)" fill="white"/>
<circle cx="58" cy="34" r="2" transform="rotate(-180 58 34)" fill="white"/>
<circle cx="42" cy="50" r="2" transform="rotate(-180 42 50)" fill="white"/>
<circle cx="42" cy="34" r="2" transform="rotate(-180 42 34)" fill="white"/>
<circle cx="50" cy="50" r="2" transform="rotate(-180 50 50)" fill="white"/>
<circle cx="50" cy="34" r="2" transform="rotate(-180 50 34)" fill="white"/>
<circle cx="34" cy="50" r="2" transform="rotate(-180 34 50)" fill="white"/>
<circle cx="34" cy="34" r="2" transform="rotate(-180 34 34)" fill="white"/>
<circle cx="58" cy="26" r="2" transform="rotate(-180 58 26)" fill="white"/>
<circle cx="58" cy="10" r="2" transform="rotate(-180 58 10)" fill="white"/>
<circle cx="42" cy="26" r="2" transform="rotate(-180 42 26)" fill="white"/>
<circle cx="42" cy="10" r="2" transform="rotate(-180 42 10)" fill="white"/>
<circle cx="50" cy="26" r="2" transform="rotate(-180 50 26)" fill="white"/>
<circle cx="50" cy="10" r="2" transform="rotate(-180 50 10)" fill="white"/>
<circle cx="34" cy="26" r="2" transform="rotate(-180 34 26)" fill="white"/>
<circle cx="34" cy="10" r="2" transform="rotate(-180 34 10)" fill="white"/>
<circle cx="58" cy="18" r="2" transform="rotate(-180 58 18)" fill="white"/>
<circle cx="58" cy="2" r="2" transform="rotate(-180 58 2)" fill="white"/>
<circle cx="42" cy="18" r="2" transform="rotate(-180 42 18)" fill="white"/>
<circle cx="42" cy="2" r="2" transform="rotate(-180 42 2)" fill="white"/>
<circle cx="50" cy="18" r="2" transform="rotate(-180 50 18)" fill="white"/>
<circle cx="50" cy="2" r="2" transform="rotate(-180 50 2)" fill="white"/>
<circle cx="34" cy="18" r="2" transform="rotate(-180 34 18)" fill="white"/>
<circle cx="34" cy="2" r="2" transform="rotate(-180 34 2)" fill="white"/>
<circle cx="26" cy="122" r="2" transform="rotate(-180 26 122)" fill="white"/>
<circle cx="26" cy="106" r="2" transform="rotate(-180 26 106)" fill="white"/>
<circle cx="10" cy="122" r="2" transform="rotate(-180 10 122)" fill="white"/>
<circle cx="10" cy="106" r="2" transform="rotate(-180 10 106)" fill="white"/>
<circle cx="18" cy="122" r="2" transform="rotate(-180 18 122)" fill="white"/>
<circle cx="18" cy="106" r="2" transform="rotate(-180 18 106)" fill="white"/>
<circle cx="2" cy="122" r="2" transform="rotate(-180 2 122)" fill="white"/>
<circle cx="2" cy="106" r="2" transform="rotate(-180 2 106)" fill="white"/>
<circle cx="26" cy="114" r="2" transform="rotate(-180 26 114)" fill="white"/>
<circle cx="26" cy="98" r="2" transform="rotate(-180 26 98)" fill="white"/>
<circle cx="10" cy="114" r="2" transform="rotate(-180 10 114)" fill="white"/>
<circle cx="10" cy="98" r="2" transform="rotate(-180 10 98)" fill="white"/>
<circle cx="18" cy="114" r="2" transform="rotate(-180 18 114)" fill="white"/>
<circle cx="18" cy="98" r="2" transform="rotate(-180 18 98)" fill="white"/>
<circle cx="2" cy="114" r="2" transform="rotate(-180 2 114)" fill="white"/>
<circle cx="2" cy="98" r="2" transform="rotate(-180 2 98)" fill="white"/>
<circle cx="26" cy="90" r="2" transform="rotate(-180 26 90)" fill="white"/>
<circle cx="26" cy="74" r="2" transform="rotate(-180 26 74)" fill="white"/>
<circle cx="10" cy="90" r="2" transform="rotate(-180 10 90)" fill="white"/>
<circle cx="10" cy="74" r="2" transform="rotate(-180 10 74)" fill="white"/>
<circle cx="18" cy="90" r="2" transform="rotate(-180 18 90)" fill="white"/>
<circle cx="18" cy="74" r="2" transform="rotate(-180 18 74)" fill="white"/>
<circle cx="2" cy="90" r="2" transform="rotate(-180 2 90)" fill="white"/>
<circle cx="2" cy="74" r="2" transform="rotate(-180 2 74)" fill="white"/>
<circle cx="26" cy="82" r="2" transform="rotate(-180 26 82)" fill="white"/>
<circle cx="26" cy="66" r="2" transform="rotate(-180 26 66)" fill="white"/>
<circle cx="10" cy="82" r="2" transform="rotate(-180 10 82)" fill="white"/>
<circle cx="10" cy="66" r="2" transform="rotate(-180 10 66)" fill="white"/>
<circle cx="18" cy="82" r="2" transform="rotate(-180 18 82)" fill="white"/>
<circle cx="18" cy="66" r="2" transform="rotate(-180 18 66)" fill="white"/>
<circle cx="2" cy="82" r="2" transform="rotate(-180 2 82)" fill="white"/>
<circle cx="2" cy="66" r="2" transform="rotate(-180 2 66)" fill="white"/>
<circle cx="26" cy="58" r="2" transform="rotate(-180 26 58)" fill="white"/>
<circle cx="26" cy="42" r="2" transform="rotate(-180 26 42)" fill="white"/>
<circle cx="10" cy="58" r="2" transform="rotate(-180 10 58)" fill="white"/>
<circle cx="10" cy="42" r="2" transform="rotate(-180 10 42)" fill="white"/>
<circle cx="18" cy="58" r="2" transform="rotate(-180 18 58)" fill="white"/>
<circle cx="18" cy="42" r="2" transform="rotate(-180 18 42)" fill="white"/>
<circle cx="2" cy="58" r="2" transform="rotate(-180 2 58)" fill="white"/>
<circle cx="2" cy="42" r="2" transform="rotate(-180 2 42)" fill="white"/>
<circle cx="26" cy="50" r="2" transform="rotate(-180 26 50)" fill="white"/>
<circle cx="26" cy="34" r="2" transform="rotate(-180 26 34)" fill="white"/>
<circle cx="10" cy="50" r="2" transform="rotate(-180 10 50)" fill="white"/>
<circle cx="10" cy="34" r="2" transform="rotate(-180 10 34)" fill="white"/>
<circle cx="18" cy="50" r="2" transform="rotate(-180 18 50)" fill="white"/>
<circle cx="18" cy="34" r="2" transform="rotate(-180 18 34)" fill="white"/>
<circle cx="2" cy="50" r="2" transform="rotate(-180 2 50)" fill="white"/>
<circle cx="2" cy="34" r="2" transform="rotate(-180 2 34)" fill="white"/>
<circle cx="26" cy="26" r="2" transform="rotate(-180 26 26)" fill="white"/>
<circle cx="26" cy="10" r="2" transform="rotate(-180 26 10)" fill="white"/>
<circle cx="10" cy="26" r="2" transform="rotate(-180 10 26)" fill="white"/>
<circle cx="10" cy="10" r="2" transform="rotate(-180 10 10)" fill="white"/>
<circle cx="18" cy="26" r="2" transform="rotate(-180 18 26)" fill="white"/>
<circle cx="18" cy="10" r="2" transform="rotate(-180 18 10)" fill="white"/>
<circle cx="2" cy="26" r="2" transform="rotate(-180 2 26)" fill="white"/>
<circle cx="2" cy="10" r="2" transform="rotate(-180 2 10)" fill="white"/>
<circle cx="26" cy="18" r="2" transform="rotate(-180 26 18)" fill="white"/>
<circle cx="26" cy="2" r="2" transform="rotate(-180 26 2)" fill="white"/>
<circle cx="10" cy="18" r="2" transform="rotate(-180 10 18)" fill="white"/>
<circle cx="10" cy="2" r="2" transform="rotate(-180 10 2)" fill="white"/>
<circle cx="18" cy="18" r="2" transform="rotate(-180 18 18)" fill="white"/>
<circle cx="18" cy="2" r="2" transform="rotate(-180 18 2)" fill="white"/>
<circle cx="2" cy="18" r="2" transform="rotate(-180 2 18)" fill="white"/>
<circle cx="2" cy="2" r="2" transform="rotate(-180 2 2)" fill="white"/>
</svg>
